<?xml version="1.0" standalone="no"?>
<!DOCTYPE svg PUBLIC "-//W3C//DTD SVG 1.1//EN" "http://www.w3.org/Graphics/SVG/1.1/DTD/svg11.dtd" >
<!--
2013-9-30: Created.
-->
<svg>
<metadata>
Created by iconfont
</metadata>
<defs>

<font id="iconfont" horiz-adv-x="1024" >
  <font-face
    font-family="iconfont"
    font-weight="500"
    font-stretch="normal"
    units-per-em="1024"
    ascent="896"
    descent="-128"
  />
    <missing-glyph />
    
    <glyph glyph-name="piliangludanhao" unicode="&#58973;" d="M1023.984135 299.686868c0 17.900695-8.532327 31.328519-25.596981 40.279379l-103.250572 49.229215 103.250572 49.230238c17.064654 8.955976 25.596981 22.378683 25.596981 40.284495 0 17.899672-8.532327 31.328519-25.596981 40.279379L529.065162 742.768219c-10.039657 4.790096-17.064654 8.566096-34.129308 0L25.612838 518.98855c-17.064654-8.949836-25.596981-22.378683-25.596981-40.279379 0-17.905812 8.532327-31.328519 25.596981-40.284495l103.250572-49.230238L25.612838 339.965224c-17.064654-8.949836-25.596981-22.37766-25.596981-40.279379 0-17.905812 8.532327-31.328519 25.596981-40.283472l103.251595-49.230238-103.251595-49.230238c-17.064654-8.949836-25.596981-22.37766-25.596981-40.279379 0-17.905812 8.532327-31.333636 25.596981-40.283472l469.321992-223.775576c6.861268-3.568269 12.800537-4.477988 17.064654-4.477988 4.267187 0 8.476045 0.48914 17.063631 4.477988l469.323015 223.775576c17.064654 8.949836 25.596981 22.37766 25.596981 40.283472 0 17.901719-8.532327 31.329543-25.596981 40.279379l-103.251595 49.230238 103.251595 49.230238C1015.452831 268.357326 1023.984135 281.781056 1023.984135 299.686868zM512.000508 653.254509l366.923834-174.545338L512.000508 304.15974 145.080767 478.710194 512.000508 653.254509zM494.935853 214.651147c7.043417-3.610224 12.800537-4.477988 17.064654-4.477988 4.267187 0 10.651594 1.74576 17.063631 4.477988l264.458137 126.093836 85.402065-41.058115L512.000508 125.137437 145.080767 299.686868l85.397972 41.058115L494.935853 214.651147zM878.924341 120.663542 512.000508-53.885889 145.080767 120.663542l85.397972 41.059138 264.458137-126.09486c6.071276-2.825348 12.800537-4.477988 17.064654-4.477988 4.267187 0 9.547447 0.75827 17.063631 4.477988l264.458137 126.09486L878.924341 120.663542z"  horiz-adv-x="1024" />

    
    <glyph glyph-name="17" unicode="&#58937;" d="M58.304 141.056c0-116.416 94.4-210.816 210.816-210.816s210.816 94.4 210.816 210.816l-0 210.816h-210.88c-116.416 0-210.752-94.4-210.752-210.816zM403.392 141.056c0-74.112-60.288-134.336-134.336-134.336s-134.336 60.288-134.336 134.336 60.288 134.336 134.336 134.336h134.336v-134.336zM965.696 626.944c0 116.416-94.4 210.816-210.816 210.816s-210.816-94.4-210.816-210.816v-210.816h210.816c116.48-0 210.816 94.4 210.816 210.816zM620.544 626.944c0 74.112 60.288 134.336 134.336 134.336s134.336-60.288 134.336-134.336c0-74.112-60.288-134.336-134.336-134.336h-134.336v134.336zM269.056 416.128h210.816l0 210.816c0 116.416-94.4 210.816-210.816 210.816-116.416 0-210.816-94.4-210.816-210.816 0.064-116.416 94.4-210.816 210.816-210.816zM269.056 761.28c74.112 0 134.336-60.288 134.336-134.336v-134.336l-134.336 0c-74.112 0-134.336 60.288-134.336 134.336 0 74.048 60.288 134.336 134.336 134.336zM754.944 351.872h-210.816v-210.816c0-116.416 94.4-210.816 210.816-210.816s210.816 94.4 210.816 210.816-94.4 210.816-210.816 210.816zM754.944 6.72c-74.112 0-134.336 60.288-134.336 134.336v134.336h134.336c74.112 0 134.336-60.288 134.336-134.336s-60.288-134.336-134.336-134.336z"  horiz-adv-x="1024" />

    
    <glyph glyph-name="nongyeyinxing" unicode="&#58944;" d="M475.004923 520.650263l0-3.805676 3.805676 0 1.954515-1.826602 5.616928-1.830695 52.780087 0 5.686513 1.830695 1.855254 1.826602 1.909489 0 1.89107 3.805676 1.847068 1.836835 0 7.458879L552.351522 794.930093l-18.878976 1.901303-20.697391 0-20.736277 0-20.770046-1.901303 0-264.983093 1.885953-7.458879L475.004923 520.650263 475.004923 520.650263zM604.150258 820.252829l0-86.445838c0.352017-0.086981 0.704035-0.185218 1.055029-0.277316l0-37.471426 0-192.235233-3.874237-5.563716-3.736091-1.904373-5.655813-1.896186-7.503904-1.904373-47.163159 0-3.799536 0-3.731998-1.821485-1.89107-3.668553-1.880837-3.805676L525.968641 354.534921l1.880837 1.895163 1.89107 1.836835 5.650697 0 105.526405 0 7.606235 1.832741 3.810792 0 3.697205 1.898233 1.87572 3.663436 1.924839 1.905396 1.885953 3.659343 0 5.632277L661.718395 677.408493l0 36.205597c125.231189-56.136531 212.307384-180.375114 212.307384-324.645938 0-180.196035-135.822408-329.166905-312.206628-353.168552l0 75.095325 0 67.99972 0 30.015617 79.099523 0 7.606235 1.840928 3.810792 1.893116 3.697205 0 1.880837 3.729951 1.924839 1.906419 1.880837 3.66139 0 5.628184L661.719418 354.534921l-3.805676-3.797489-5.578042-3.805676-5.695722-1.826602-5.720282-1.830695-103.640452 0-3.804652 0-3.731998-1.834788-1.89107-3.733021-1.880837-3.733021L525.970688 210.750167l-28.312836 0L497.657852 333.972607l0 3.733021-3.736091 3.733021-3.804652 1.830695-3.731998 0L382.678144 343.269343l-5.691629 1.834788-5.616928 1.826602-5.691629 3.805676-1.846044 1.826602-1.88493 1.966795 0-126.9616 1.88493-5.632277 0-3.657296 1.846044-1.906419 3.771907-3.729951 3.804652 0 1.851161-1.89721 7.576559-1.836835 79.196737 0 0-173.146479c-176.496783 23.903409-312.434825 172.928514-312.434825 353.205391 0 144.271848 87.071078 268.520663 212.313523 324.652078l0-36.313044 0.190335 0.102331 0-300.55117 1.879813-5.632277 0-3.659343 1.851161-1.905396 3.771907-3.663436 1.919722-1.898233 3.736091 0 7.572466-1.832741 107.435894 0 3.804652 0 3.736091-3.730974L497.655805 483.257631l0 3.805676-3.736091 3.668553-3.804652 1.821485-3.731998 0-47.15702 0-5.652743 1.904373-5.622044 1.896186-5.691629 1.904373-1.879813 1.831718-1.856277 3.726881L418.523537 696.058249 418.523537 787.530566l0 0 0 32.561603C215.966215 777.878742 63.961242 600.897935 63.961242 388.968152c0-243.377006 200.470801-440.687838 447.77321-440.687838 247.296269 0 447.772186 197.309808 447.772186 440.687838C959.506638 601.171158 807.107693 778.338207 604.150258 820.252829L604.150258 820.252829 604.150258 820.252829zM604.150258 820.252829"  horiz-adv-x="1024" />

    
    <glyph glyph-name="mima" unicode="&#58968;" d="M779.821998 528.013434l-5.15869 0c-2.579345 0-2.579345 0-5.15869 0L769.504618 623.449202C770.3644 779.069689 657.732997 896 508.990764 896c-146.162888 0-257.934509-116.930311-257.934509-272.550798l0-95.435768-7.738035 0c-78.240134 0-141.004198-66.203191-141.004198-143.583543l0-367.986566c0-80.819479 63.623846-143.583543 141.004198-143.583543l536.503778 0c78.240134 0 141.004198 66.203191 141.004198 143.583543L920.826196 384.429891C919.106633 464.389589 855.482788 528.013434 779.821998 528.013434zM294.905122 625.168766c0 134.125945 90.277078 228.701931 214.085642 228.701931 126.387909 0 216.664987-97.155332 216.664987-228.701931l0-95.435768L292.325777 529.7329970000001 292.325777 625.168766 294.905122 625.168766zM877.837112 16.44332499999996c0-55.88581-43.848866-102.314022-97.155332-102.314022L243.31822-85.87069699999995c-53.306465 0-97.155332 46.428212-97.155332 102.314022L146.162888 384.429891c0 55.88581 43.848866 102.314022 97.155332 102.314022L257.934509 486.743913l36.970613 0 434.189757 0 51.586902 0 0 0c53.306465 0 97.155332-46.428212 97.155332-102.314022L877.837112 16.44332499999996 877.837112 16.44332499999996zM507.271201 328.544081c-34.391268 0-61.0445-29.232578-61.0445-63.623846 0-24.073887 12.036944-43.848866 31.811923-55.88581l0-104.893367c0-17.195634 14.616289-31.811923 31.811923-31.811923s31.811923 14.616289 31.811923 31.811923L541.662469 209.03442500000006c19.774979 12.036944 31.811923 31.811923 31.811923 55.88581C567.455919 298.451721 540.802687 328.544081 507.271201 328.544081z"  horiz-adv-x="1024" />

    
    <glyph glyph-name="jiansheyinxing" unicode="&#58977;" d="M924.689157 367.195266 754.813165 367.195266c0 0-12.20702 0-17.292851-2.073218-3.051499-1.036609-13.224186-9.329483-13.224186-9.329483l-209.547527-213.533304c-4.068665-3.109828-9.154497-3.109828-13.224186 0L278.753725 369.268484c-3.051499 3.109828-3.051499 9.329483 0 12.43931l223.788879 227.009224c3.051499 4.146437 9.155521 4.146437 12.20702 0L711.071941 408.657586c0 0 8.137331-9.329483 17.292851-12.438287 9.154497-2.073218 22.378683 9.329483 22.378683 9.329483l90.532923 94.327342L576.798818 767.311059c-55.94722 57.011458-116.980271 51.828412-141.393287 48.718585C222.806505 779.749346 69.206198 594.203466 69.206198 373.413897c0-248.776993 202.427362-447.797769 439.439404-447.797769 232.943376 0 428.249551 190.728926 439.439404 431.213046 0 3.109828 1.017166 5.183046-5.085832 9.329483C936.895153 370.305093 924.689157 367.195266 924.689157 367.195266L924.689157 367.195266zM646.987391 774.567323l231.92621-234.264465 64.084551 63.231113c0 0 6.102998 10.366092 8.137331 19.694551 1.017166 5.183046-9.154497 13.474896-9.154497 13.474896L800.587698 781.822564C667.331741 917.61325 518.817266 852.309942 518.817266 852.309942S580.868507 851.273333 646.987391 774.567323L646.987391 774.567323z"  horiz-adv-x="1024" />

    
    <glyph glyph-name="nianyingyee" unicode="&#58963;" d="M516.991688 214.778924 516.991688 364.422106c38.777165-6.331195 68.337411-37.429471 68.337411-74.821079C585.329099 252.212488 555.768853 221.114213 516.991688 214.778924zM419.61387 477.046163c0 35.335786 26.427906 65.031109 62.059428 73.5399l0-147.077753C446.041776 412.015054 419.61387 441.713446 419.61387 477.046163zM516.991688 400.056698 516.991688 551.82631c19.316951-3.14462 36.900422-12.390191 49.600675-26.621311 6.491855-7.27673 17.654079-7.91732 24.931832-1.422396 7.277754 6.491855 7.91425 17.655102 1.422396 24.931832-19.37221 21.709441-46.489824 35.390022-75.953879 38.803771l0 34.535561c0 9.753131-7.90504 17.660218-17.659195 17.660218s-17.659195-7.907087-17.659195-17.660218l0-35.461653c-55.265698-9.3039-97.378841-54.826699-97.378841-109.545952 0-54.717206 42.114167-100.243075 97.378841-109.547998l0-151.438061c-35.631522 8.510838-62.059428 38.20616-62.059428 73.5399 0 9.753131-7.906064 17.660218-17.660218 17.660218s-17.659195-7.907087-17.659195-17.660218c0-54.720276 42.114167-100.242052 97.378841-109.545952l0-35.46063c0-9.753131 7.90504-17.660218 17.659195-17.660218s17.659195 7.907087 17.659195 17.660218l0 34.545794c58.328453 6.782473 103.657848 53.685713 103.657848 110.460788C620.650559 346.377124 575.320141 393.277294 516.991688 400.056698zM502.506788 60.998515l-0.027629 0c-177.725774 0-322.32508 144.591119-322.338383 322.327126 0 177.731914 144.591119 322.323033 322.32508 322.323033 177.732937 0 322.324056-144.591119 322.324056-322.323033C824.789912 205.589634 680.212096 60.998515 502.506788 60.998515zM502.465856 740.969111C305.257356 740.969111 144.819317 580.532095 144.819317 383.324618 144.833643 186.116117 305.278845 25.678078 502.479159 25.678078l0.027629 17.662265 0-17.662265c197.178825 0 357.603561 160.438039 357.603561 357.64654C860.110349 580.532095 699.67231 740.969111 502.465856 740.969111z"  horiz-adv-x="1024" />

    
    <glyph glyph-name="zhongguoyinhangbank1193437easyiconnet" unicode="&#58983;" d="M436.8768 819.7152C132.5632 765.0944-27.3984 425.6672 128.6592 160.368c163.8624-280.9056 569.616-296.512 752.9856-23.408C1096.2272 460.7808 815.3184 889.9424 436.8768 819.7152zM460.2848 651.952c0-105.3376 3.904-93.6352-50.7168-97.536-89.7344-7.8016-105.3408-31.2128-109.2416-144.3552-3.9008-175.568 7.8016-202.8768 105.3376-210.6784 62.4256-7.8016 58.5248-3.9008 58.5248-97.5328 0-89.7344 0-89.7344-62.4256-66.3296C120.8576 125.2576 58.4352 495.8944 292.5216 675.3632c42.9184 35.1104 124.848 70.224 156.0608 70.224l11.7024 0L460.2848 651.952zM612.4448 737.7856c261.4016-74.128 351.1328-409.6544 163.8624-608.6304-54.624-54.6208-156.0608-109.2448-198.976-105.344l-7.8048 3.9072-3.9008 74.128c0 93.6352-3.9008 85.8272 42.9152 89.7312 97.5392 7.8016 109.2416 31.2128 113.1392 171.6672 0 156.0608-15.6 183.3696-113.1392 191.1712l-39.0144 3.9008-3.9008 11.7056c-3.9008 15.6064-3.9008 167.7632 0 171.664C569.5264 745.5872 581.232 745.5872 612.4448 737.7856zM624.1472 468.5824c11.7056-7.8016 11.7056-156.0576 0-167.7632-11.7024-11.6992-218.4832-11.6992-226.2848 0-3.9008 7.8048-3.9008 159.9616 0 167.7632C405.664 472.4864 616.3424 472.4864 624.1472 468.5824z"  horiz-adv-x="1024" />

    
    <glyph glyph-name="youzhen1193431easyiconnet" unicode="&#58984;" d="M589.88544 793.88672c-1.460907-3.40992-13.154987-65.307307-18.845013-99.587413-1.30048-7.959893-3.089067-16.247467-3.904853-18.19648l-1.621333-3.734187-210.551467 0-2.921813-14.946987c-17.708373-93.252267-47.438507-234.919253-50.039467-238.004907-1.30048-1.624747-24.04352-2.112853-103.81312-2.112853-56.210773 0-102.18496-0.488107-102.18496-1.13664 0-0.648533-5.850453-27.456853-12.997973-59.784533-22.74304-102.51264-32.167253-146.21696-31.679147-146.701653 0.324267-0.324267 45.974187-0.488107 101.376-0.324267 92.60032 0.160427 101.04832-0.16384 102.024533-2.60096 0.488107-1.46432-4.225707-27.94496-10.560853-58.97216-6.335147-30.866773-17.05984-83.17952-23.719253-115.995307-6.823253-32.815787-12.346027-60.1088-12.346027-60.433067 0-0.49152 99.91168-0.812373 222.245547-0.812373l222.081707 0 3.089067 13.318827c1.624747 7.471787 4.7104 21.121707 6.659413 30.54592 2.112853 9.4208 8.608427 38.659413 14.455467 64.979627 11.373227 51.6608 27.948373 125.579947 29.897387 134.84032l1.297067 5.686613 68.887893 0.812373 68.881067 0.812373 10.400427 35.741013c5.686613 19.657387 10.72128 37.36576 11.205973 39.314773l0.812373 3.741013-189.590187 0-8.77568-37.690027c-4.706987-20.79744-15.752533-70.024533-24.531627-109.335893-8.932693-39.314773-17.70496-78.30528-19.493547-86.4256l-3.57376-15.110827L284.463787 51.77344l0 3.57376c0 1.949013 1.30048 9.908907 2.761387 17.8688l2.761387 14.298453 294.212267 0 4.553387 21.439147c2.597547 11.861333 10.397013 47.926613 17.544533 80.093867 7.31136 32.167253 17.384107 78.46912 22.74304 103.000747 5.358933 24.3712 10.072747 45.0048 10.560853 45.81376 0.488107 0.812373 51.985067 1.46432 116.974933 1.46432 63.8464 0 115.995307 0.324267 115.995307 0.976213 0 0.488107 4.7104 17.220267 10.55744 37.198507 5.853867 19.981653 10.560853 37.044907 10.560853 38.017707 0 1.297067-40.61184 1.785173-141.98784 1.785173-133.870933 0-142.15168-0.160427-142.967467-2.761387-0.488107-1.624747-4.549973-19.33312-8.932693-39.478613-4.54656-20.14208-12.1856-54.422187-17.22368-76.356267-5.034667-21.930667-10.069333-45.325653-11.533653-51.981653-2.10944-10.072747-12.834133-58.651307-16.083627-72.62208l-0.812373-3.734187L306.71872 170.369707l1.140053 9.25696c0.648533 5.20192 1.949013 13.810347 3.085653 19.172693l1.949013 9.74848 98.93888 0.484693c54.586027 0.16384 99.426987 0.648533 99.751253 1.13664 0.324267 0.32768 3.898027 15.43168 7.796053 33.631573 9.099947 41.591467 36.225707 164.898133 37.526187 169.9328l0.812373 3.57376-100.072107 0c-78.629547 0-100.399787 0.488107-100.887893 2.112853-0.488107 0.9728 1.30048 12.509867 3.7376 25.504427l4.54656 23.558827 151.739733 0.488107 151.90016 0.324267 12.837547 58.97216c7.14752 32.331093 13.646507 59.784533 14.455467 60.924587 1.140053 1.460907 26.48064 1.949013 116.3264 1.949013l114.855253 0 8.451413 29.730133c4.706987 16.244053 9.905493 34.440533 11.533653 40.615253l3.24608 10.88512-288.525653 0-1.949013-9.260373c-0.976213-5.198507-5.850453-31.35488-10.724693-58.1632-4.87424-26.804907-9.260373-50.36032-9.745067-52.312747l-0.812373-3.734187-259.938987 0 0.651947 3.734187c0.488107 1.952427 2.43712 10.881707 4.222293 19.821227 1.788587 8.936107 3.7376 17.544533 4.225707 19.008853 0.812373 2.761387 7.635627 2.925227 105.110187 3.249493l104.137387 0.488107 1.13664 4.870827c0.651947 2.7648 6.498987 29.569707 12.997973 59.787947l11.85792 54.746453 327.359147 0 1.788587 6.987093c1.78176 6.823253 18.845013 67.584 20.46976 73.106773 0.812373 2.60096-8.936107 2.761387-190.242133 2.761387l-190.890667 0L589.88544 793.88672 589.88544 793.88672zM285.11232 331.526827c0.324267-0.651947-0.648533-6.33856-2.27328-12.509867-1.624747-6.335147-3.898027-14.455467-4.87424-18.19648l-1.788587-6.987093L196.734293 293.833387c-43.864747 0-79.60576 0.32768-79.60576 0.651947 0 2.27328 15.435093 36.061867 16.896 37.041493C136.461653 333.154987 284.13952 333.154987 285.11232 331.526827zM490.786133 331.03872c0-0.976213-3.40992-9.74848-7.471787-19.500373l-7.635627-17.708373-72.782507 0c-40.127147 0-72.942933 0.32768-72.942933 0.812373 0 3.90144 9.096533 36.06528 10.397013 36.881067C343.435947 333.636267 490.786133 333.154987 490.786133 331.03872z"  horiz-adv-x="1024" />

    
    <glyph glyph-name="woyaozhijuantubiao" unicode="&#58888;" d="M-0.853 32.427v0 395.947c0 10.24 6.827 17.067 17.067 17.067h819.2c10.24 0 17.067-6.827 17.067-17.067v-392.533c0-10.24-6.827-17.067-17.067-17.067v0h-819.2c-10.24 0-17.067 6.827-17.067 13.653v0zM33.28 407.893v-361.813h785.067v361.813h-785.067zM98.133 486.4c-10.24 0-17.067 10.24-17.067 17.067 0 10.24 6.827 17.067 17.067 17.067h819.2c10.24 0 17.067-6.827 17.067-17.067v-392.533c0-10.24-6.827-17.067-17.067-17.067s-17.067 6.827-17.067 17.067v375.467h-802.133zM166.4 554.667c-10.24 0-17.067 10.24-17.067 17.067 0 10.24 6.827 17.067 17.067 17.067h819.2c6.827 0 17.067-6.827 17.067-17.067v-392.533c0-10.24-6.827-17.067-17.067-17.067s-17.067 6.827-17.067 17.067v375.467h-802.133zM726.187 407.893c0-27.307 6.827-58.027 27.307-78.507 17.067-17.067 40.96-30.72 68.267-30.72 0-6.827 0-10.24 0-34.133-13.653 0-64.853 6.827-92.16 40.96s-34.133 78.507-34.133 98.987c13.653 3.413 10.24 3.413 30.72 3.413zM729.6 49.493c0 27.307 6.827 58.027 27.307 75.093 13.653 13.653 27.307 23.893 44.373 27.307 6.827 0 13.653 3.413 20.48 3.413 0 6.827 0 10.24 0 30.72-3.413 0-17.067 0-34.133-3.413-17.067-3.413-44.373-17.067-58.027-34.133-27.307-34.133-30.72-75.093-30.72-95.573 10.24-3.413 6.827-3.413 30.72-3.413zM125.44 407.893c0-27.307-6.827-58.027-23.893-75.093-17.067-17.067-40.96-30.72-68.267-30.72 0-6.827 0-10.24 0-34.133 13.653 0 64.853 6.827 92.16 40.96 23.893 27.307 30.72 85.333 30.72 85.333v13.653c-10.24 0-6.827 0-30.72 0zM125.44 46.080c0 27.307-6.827 58.027-27.307 78.507-17.067 17.067-40.96 30.72-68.267 30.72 0 6.827 0 10.24 0 34.133 17.067-3.413 68.267-10.24 95.573-44.373s34.133-78.507 34.133-98.987c-13.653 0-10.24 0-34.133 0zM422.4 83.627c-30.72 0-98.987 58.027-129.707 109.227-23.893 40.96-27.307 78.507-6.827 105.813 23.893 34.133 64.853 40.96 105.813 17.067 10.24-6.827 20.48-13.653 27.307-20.48 20.48 17.067 54.613 34.133 85.333 30.72 27.307 0 51.2-17.067 61.44-40.96v0 0c13.653-23.893 10.24-54.613-6.827-85.333-34.133-54.613-112.64-116.053-136.533-116.053 3.413 0 3.413 0 0 0zM343.893 302.080c-13.653 0-23.893-3.413-34.133-20.48-13.653-17.067-10.24-40.96 6.827-71.68 30.72-58.027 95.573-98.987 109.227-98.987 10.24 3.413 88.747 58.027 116.053 116.053 10.24 20.48 10.24 37.547 3.413 51.2v0c-6.827 17.067-20.48 23.893-40.96 23.893-30.72 0-61.44-17.067-71.68-30.72-3.413-3.413-6.827-6.827-10.24-6.827-3.413 0-10.24 0-10.24 3.413-6.827 6.827-17.067 17.067-30.72 23.893-13.653 6.827-27.307 10.24-37.547 10.24z"  horiz-adv-x="1024" />

    
    <glyph glyph-name="gongyirangli" unicode="&#58941;" d="M524.2752 896C241.516134 896 12.288102 666.771968 12.288102 384.023962c0-117.534003 39.610982-225.814016 106.203955-312.231014l38.47895 40.06103C100.53417 187.890995 67.143168 282.055987 67.143168 384.023962c0 252.460954 204.668006 457.120973 457.132032 457.120973 252.45399 0 457.120973-204.660019 457.120973-457.120973 0-252.468019-204.668006-457.12896-457.120973-457.12896-91.12105 0-176.011981 26.66496-247.303987 72.611021l-34.630042-42.907955c80.855962-53.441024 177.760973-84.558029 281.934029-84.558029 282.755994 0 511.984026 229.224038 511.984026 511.984026C1036.258202 666.771968 807.03017 896 524.2752 896zM304.851149 329.158042 304.851149 274.302976 505.983181 274.302976 505.983181 128.033997 505.983181 128.02601 505.983181 128.02601 505.983181 91.45303 560.838144 91.45303 560.838144 128.02601 560.83712 128.02601 560.838144 128.033997 560.838144 274.302976 761.973146 274.302976 761.973146 329.158042 560.838144 329.158042 560.838144 438.863974 761.973146 438.863974 761.973146 493.729997 600.358195 493.729997 718.125158 611.500032 678.615142 651.014042 533.40713 505.822003 388.213146 651.014042 348.695142 611.500032 466.462106 493.729997 304.851149 493.729997 304.851149 438.863974 505.983181 438.863974 505.983181 329.158042Z"  horiz-adv-x="1048" />

    
    <glyph glyph-name="shoujiyanzheng" unicode="&#58986;" d="M753.482867 895.559978 270.50997 895.559978c-62.660108 0-113.761973-50.757011-113.761973-113.399723l0-796.32972c0-62.666248 50.925856-113.391537 113.761973-113.391537l482.972896 0c62.666248 0 113.769137 50.757011 113.769137 113.391537L867.252003 782.160255C867.252003 844.82855 816.318984 895.559978 753.482867 895.559978zM804.272623-14.168442c0-31.203676-19.384489-50.41318-50.789757-50.41318L270.50997-64.581622c-31.371498 0-50.782593 19.237133-50.782593 50.41318L219.727377 782.160255c0 31.178093 19.384489 50.420343 50.782593 50.420343l482.972896 0c31.405267 0 50.789757-19.24225 50.789757-50.420343L804.272623-14.168442zM689.845501 703.785234 348.360036 703.785234c-15.688307 0-28.41926-16.829294-28.41926-32.518624 0-15.683191 12.730952-31.490202 28.41926-31.490202L689.845501 639.776408c15.690354 0 28.41926 15.807011 28.41926 31.490202C718.26476 686.95594 705.535855 703.785234 689.845501 703.785234zM511.99693 156.636712c-18.597567 0-37.084617-7.656377-50.237171-20.808932-13.151531-13.153578-20.808932-31.639604-20.808932-50.237171 0-18.603707 7.656377-37.09178 20.808932-50.243311 13.152555-13.153578 31.639604-20.808932 50.237171-20.808932 18.603707 0 37.089733 7.655354 50.243311 20.808932 13.152555 13.152555 20.808932 31.639604 20.808932 50.243311 0 18.597567-7.656377 37.083593-20.808932 50.237171C549.086663 148.979312 530.600637 156.636712 511.99693 156.636712zM490.072595 353.713206 377.668549 466.117253 338.744028 427.192731 490.072595 275.863141 707.4566 493.523439 668.461471 532.102083Z"  horiz-adv-x="1024" />

    
    <glyph glyph-name="baomi" unicode="&#58897;" d="M905.031956 365.586628l-38.015825 51.377134c10.219759 8.18338 20.37812 16.70138 30.203906 25.338085 12.189623 10.703783 13.397125 29.340235 2.681062 41.537022-5.591345 6.361895-13.635555 10.001795-22.10853 10.001795-7.14677 0-14.049994-2.599198-19.427468-7.326872-86.741573-76.213799-177.188538-123.624599-268.821515-140.947126-26.479071-4.997827-53.525054-7.54586-80.385818-7.552-46.38647 0-93.349061 7.573489-139.586129 22.49227-65.961294 21.295002-119.150704 54.013171-152.170748 77.704756-34.112935 24.469298-54.127781 44.457538-56.275701 46.647413-5.597485 5.77554-13.111622 8.969279-21.165042 8.969279-7.674796 0-14.939247-2.929726-20.445658-8.262174-5.647627-5.461385-8.841366-12.790304-8.970302-20.656459-0.141216-7.867178 2.795673-15.313777 8.262174-20.956288 0.572028-0.591471 14.049994-14.446014 37.904285-33.558303l-33.125445-42.776246c-4.817726-6.210445-6.92062-13.934361-5.928013-21.734 1.003863-7.798617 4.966105-14.737656 11.172457-19.532869 5.123694-3.979638 11.524474-6.17156 18.012236-6.17156 9.193383 0 17.673521 4.158716 23.287379 11.404748l34.223452 44.204781c33.314757-21.917172 68.211545-40.503483 103.801111-55.289234l-21.922289-47.306422c-6.825452-14.724353-0.391926-32.254611 14.334473-39.081087 3.911076-1.807159 8.070816-2.728134 12.349259-2.728134 11.4334 0 21.922289 6.695492 26.717502 17.054421l24.194028 52.244898c38.257326-11.358699 77.133751-18.281365 115.609041-20.617573l0-53.937446c0-16.22145 13.199627-29.430286 29.429263-29.430286 16.220427 0 29.4221 13.208836 29.4221 29.430286l0 53.907771c20.499893 1.220804 41.089837 3.759627 61.248969 7.538697 22.287609 4.158716 44.813648 9.987468 67.010183 17.330714l25.51307-53.023634c4.878101-10.128685 15.293311-16.664541 26.532283-16.664541 4.442172 0 8.735965 0.98749 12.757558 2.921539 14.602579 7.037277 20.771069 24.666796 13.749142 39.283702l-23.587208 48.994877c33.021068 14.95562 66.031902 33.619702 98.18009 55.527664l37.993313-51.350528c5.520737-7.479345 14.371312-11.941983 23.677259-11.941983 6.324032 0 12.369725 2.000564 17.47193 5.776563 6.340405 4.674463 10.461259 11.530614 11.619642 19.298532 1.191128 7.77815-0.74292 15.546068-5.424546 21.8701L905.031956 365.586628 905.031956 365.586628z"  horiz-adv-x="1024" />

    
    <glyph glyph-name="mimaqueren" unicode="&#58972;" d="M833.26698297 508.92980038L298.30777518 508.92980038l0 87.30513033c0 118.96814484 96.84377894 215.81192379 215.94440553 215.81192379 119.10062659 0 215.94440554-96.9762607 215.94440555-216.076886 0-16.16271034 12.98315994-29.14587027 29.14587026-29.14587026s29.14587027 12.98315994 29.14587027 29.14587026c0 151.29356549-123.07506231 274.36862782-274.23614608 274.36862783-73.26212027 0-142.15235955-28.48346409-193.95252139-80.28362595-51.80016057-51.80016057-80.28362595-120.55791938-80.28362597-193.82003967L240.01603466 508.92980038l-61.47129093 0c-35.76993198 0-64.38587782-28.61594585-64.38587783-64.25339608l0-442.61979028c0-35.76993198 28.74842759-65.31324621 64.38587783-65.31324621l654.58975879 0c35.76993198 0 65.18076575 29.54331423 65.18076575 65.31324621L898.31526697 444.67640301C898.44774873 480.31385453 869.03691495 508.92980038 833.26698297 508.92980038zM840.1560069 1.3942065500000353c0-3.57699308-2.9145869-6.49157997-6.49157997-6.49157996L178.94218769-5.097373410000046c-3.57699308 0-6.49157997 2.9145869-6.49157997 6.49157996L172.45060643 444.14647859c0 3.57699308 2.9145869 6.49157997 6.49157996 6.49157996l654.58975878 0c3.57699308 0 6.49157997-2.9145869 6.49157998-6.49157996L840.02352644 1.3942065500000353zM683.56319332 363.46540867L448.93893451 128.84114985999997c-0.66240618-0.66240618-1.58977455-0.66240618-2.11970026 0l-94.59159823 94.59159823c-11.39338538 11.39338538-29.80827644 11.39338538-41.20166311 0-11.39338538-11.39338538-11.39338538-29.80827644 0-41.2016631l94.59159823-94.59159823c11.65834889-11.65834889 27.02617129-17.48752268 42.26151194-17.48752267 15.36782241 0 30.60316436 5.82917379 42.26151195 17.48752267l234.6242588 234.62425881c11.39338538 11.39338538 11.39338538 29.80827644 0 41.2016631C713.37146976 374.85879535000004 694.9565787 374.85879535000004 683.56319332 363.46540867z"  horiz-adv-x="1024" />

    
    <glyph glyph-name="changyonglogo04" unicode="&#59124;" d="M707.981045 356.847593 707.981045 309.020308 707.981045 251.586225 707.981045 201.376683 652.953777 201.376683 535.756565 201.376683 535.756565 251.586225 652.953777 251.586225 652.953777 309.020308 590.782809 309.020308 535.756565 309.020308 535.756565 359.228827 535.756565 411.873838 535.756565 464.490196 590.782809 464.490196 652.953777 464.490196 652.953777 517.13623 535.756565 517.13623 535.756565 567.317119 652.953777 567.317119 707.981045 567.317119 707.981045 517.13623 707.981045 464.490196 707.981045 411.873838 652.953777 411.873838 590.782809 411.873838 590.782809 359.228827 707.981045 359.228827 707.981045 356.847593ZM313.32152 356.847593 313.32152 309.020308 313.32152 251.586225 313.32152 201.376683 368.293529 201.376683 485.519394 201.376683 485.519394 251.586225 368.293529 251.586225 368.293529 309.020308 430.494173 309.020308 485.519394 309.020308 485.519394 359.228827 485.519394 411.873838 485.519394 464.490196 430.494173 464.490196 368.293529 464.490196 368.293529 517.13623 485.519394 517.13623 485.519394 567.317119 368.293529 567.317119 313.32152 567.317119 313.32152 517.13623 313.32152 464.490196 313.32152 411.873838 368.293529 411.873838 430.494173 411.873838 430.494173 359.228827 313.32152 359.228827 313.32152 356.847593ZM510.651794 735.971283c-194.19691 0-351.624383-157.427472-351.624383-351.624383s157.427472-351.624383 351.624383-351.624383 351.624383 157.427472 351.624383 351.624383S704.848705 735.971283 510.651794 735.971283zM510.651794 100.802056c-156.596548 0-283.543821 126.948297-283.543821 283.544845s126.947274 283.543821 283.543821 283.543821c156.597571 0 283.544845-126.947274 283.544845-283.543821S667.249365 100.802056 510.651794 100.802056z"  horiz-adv-x="1024" />

    
    <glyph glyph-name="tongzhi" unicode="&#58938;" d="M659.718343 3.739417000000003L364.28575 3.739417000000003c-17.447371 0-31.602765-14.139022-31.602765-31.586392 0-17.446347 14.156418-31.586392 31.602765-31.586392l295.432593 0c17.446347 0 31.602765 14.139022 31.602765 31.586392C691.321108-10.399604999999951 677.16469 3.739417000000003 659.718343 3.739417000000003zM870.280989 160.731984l-58.050114 102.012372c-16.683984 40.294728-71.604828 33.410947-65.106834-5.143137 0.527003-1.355881 0.927115-2.76395 1.645476-4.02978l71.295789-125.453247c0.719384-1.234107 1.508353-2.417049 2.26253-3.342118L200.784956 124.776074l73.14695 128.760572c2.570545 4.472871 3.908006 9.580193 3.908006 14.807241L277.839913 451.022463c0 87.85186 68.279083 178.942485 159.387104 212.071 22.5199 7.283894 39.350217 10.506285 49.495274 11.92868 11.55108 1.594311 33.488719 2.022053 48.810682-0.033769 14.910595-2.039449 32.494065-6.324032 53.30095-13.127995 88.948845-33.728172 156.028613-124.356262 156.028613-210.836893l0-98.359168c1.547239-28.015054 55.228859-30.90487 59.778478 0L804.641013 451.022463c0 53.385884-19.297508 109.582791-54.363142 158.205185-29.523407 40.86471-69.201082 73.718979-113.947192 96.090499-1.357927 67.536162-56.502875 122.115222-124.346029 122.115222-67.557652 0-122.460076-54.140061-124.262118-121.286344-44.393069-21.855774-84.387969-54.562686-114.235764-95.496981-35.750225-48.998971-55.425334-105.675808-55.425334-159.627581l0-174.795025-70.815859-124.613112c-10.214642-17.823947-10.146081-39.983643 0.170892-57.80759 10.283204-17.772782 29.478382-28.810163 50.112328-28.810163l100.945063 0 69.547982 0 62.075801 0 163.775041 0 62.041008 0 170.493046 0c31.945573 0 57.96211 25.964348 57.96211 57.876152C884.368846 136.892019 879.363855 150.29426 870.280989 160.731984zM511.98465 771.287627c29.589922 0 54.617945-18.989493 64.151066-45.331441-40.433898 7.983835-87.045495 8.224312-128.154775 0.471744C457.642998 752.529401 482.56869 771.287627 511.98465 771.287627z"  horiz-adv-x="1024" />

    
    <glyph glyph-name="shangjia" unicode="&#59331;" d="M1028.114361 415.77931l0-410.674847c0-42.173263-34.188888-76.362152-76.362152-76.362152L239.035498-71.257688c-42.173263 0-76.362152 34.188888-76.362152 76.362152L162.673346 441.673092 111.764303 463.278786l0-483.628844c0-56.23243 45.584243-101.816673 101.816673-101.816673L977.206731-122.166731c56.23243 0 101.816673 45.584243 101.816673 101.816673L1079.023404 463.278786 1028.114361 415.77931zM315.39765 896 336.643178 845.09237 854.305545 845.09237 875.390058 896ZM60.856673 641.459023l0-101.816673c0-84.347939 68.377777-152.724303 152.724303-152.724303 53.150543 0 99.915564 27.181903 127.271194 68.370714 27.35563-41.188811 74.120651-68.370714 127.271194-68.370714 53.150543 0 99.915564 27.181903 127.271194 68.370714 27.35563-41.188811 74.120651-68.370714 127.271194-68.370714 52.84405 0 99.405683 26.848574 126.826284 67.639084 27.286422-40.707178 74.259068-67.639084 127.714692-67.639084 84.347939 0 152.724303 66.92864 152.724303 149.491288l0 105.051101L60.856673 641.460436zM1079.021992 536.407923c0-55.040353-45.584243-99.659917-101.816673-99.659917-56.23243 0-101.816673 44.619564-101.816673 99.659917l-0.16384 0c0.022599 1.086146 0.16384 2.142632 0.16384 3.234428l-50.909043 0c0-56.23243-45.584243-101.816673-101.816673-101.816673-56.23243 0-101.816673 45.584243-101.816673 101.816673l-50.909043 0c0-56.23243-45.584243-101.816673-101.816673-101.816673-56.23243 0-101.816673 45.584243-101.816673 101.816673l-50.909043 0c0-56.23243-45.584243-101.816673-101.816673-101.816673-56.23243 0-101.816673 45.584243-101.816673 101.816673l0 50.909043 967.257688 0L1079.019167 536.407923zM162.673346 132.375658l865.563895 0 0-50.90763-865.563895 0 0 50.90763ZM315.39765 895.84181 60.856673 641.300833 133.009832 641.459023 336.643178 845.09237ZM875.411244 895.981639 854.305545 845.09237 1057.941716 641.456199 1129.953633 641.440662Z"  horiz-adv-x="1174" />

    
    <glyph glyph-name="wancheng1" unicode="&#58947;" d="M512.090316-128C230.847063-128 0 102.66643099999999 0 383.90968399999997 0 665.1529370000001 230.847063 896 512.090316 896s512.090316-230.847063 512.090316-512.090316C1024 99.05380100000002 793.333569-128 512.090316-128zM512.090316 831.15329c-245.116952 0-447.062974-201.946022-447.062974-447.062974S266.792732-63.15328999999997 512.090316-63.15328999999997 959.15329 138.792732 959.15329 383.90968399999997 757.207268 831.15329 512.090316 831.15329zM447.062974 178.35103200000003L447.062974 178.35103200000003c-7.22526 0-18.06315 3.61263-21.675781 10.83789l-173.044981 173.044981c-14.45052 14.45052-14.45052 32.513671 0 46.964191 14.45052 14.45052 32.513671 10.83789 46.964191 0l147.756571-151.369201 299.306403 299.306403c14.45052 14.45052 32.513671 14.45052 46.964191 0 14.45052-14.45052 14.45052-32.513671 0-46.964191L468.738755 185.57629199999997C465.126125 181.963662 457.900864 178.35103200000003 447.062974 178.35103200000003z"  horiz-adv-x="1025" />

    
    <glyph glyph-name="shouji" unicode="&#58936;" d="M767.516999-127.032976 256.481977-127.032976c-30.264281 0-54.753021 23.670096-54.753021 52.862975L201.728956 842.168977c0 29.193903 24.488741 52.865022 54.753021 52.865022l511.035022 0c30.264281 0 54.754045-23.671119 54.754045-52.865022l0-916.337955C822.270021-103.36288 797.78128-127.032976 767.516999-127.032976zM511.999488-74.168977c20.141736 0 36.503379 15.774265 36.503379 35.237549 0 19.464307-16.361643 35.254945-36.503379 35.254945-20.142759 0-36.500309-15.792685-36.500309-35.254945C475.498156-58.394712 491.857752-74.168977 511.999488-74.168977zM767.516999 789.304979 749.26531 789.304979 274.733667 789.304979 256.481977 789.304979l0-740.117464 18.251689 0L749.26531 49.187515l18.251689 0L767.516999 789.304979z"  horiz-adv-x="1024" />

    
    <glyph glyph-name="lirun2" unicode="&#58904;" d="M475.759611 384.919952c6.827499 9.29469 8.356318 19.426445 3.759627 30.111808-4.593622 10.408047-13.650905 13.875009-24.238031 14.429641-2.78237 0.141216-5.569856 0.141216-8.356318 0.141216-22.565948 0-44.991704 0.1361-67.557652-0.141216-4.874007 0-6.269797 1.528819-6.127558 6.383384 0.276293 15.681144 0.557702 31.503505 0.138146 47.184649-0.138146 6.519484 1.948375 8.04728 8.219195 8.04728 26.049283-0.141216 51.958372 0 78.005608 0.691755 14.346753 0.418532 22.984481 10.549264 22.427802 24.701588-0.694825 17.760502-15.046694 31.500435-32.875758 31.500435-22.984481 0-45.968961-0.137123-68.952418 0-2.368954 0-6.547113-1.110287-6.404873 2.082428 0.138146 7.906064-3.067872 16.095583 4.178159 23.451108 25.071002 25.117051 49.447179 50.788733 74.104765 76.32227 3.200902 3.329838 6.407943 6.7968 8.91402 10.685363 9.333576 14.013155 2.648316 30.667463-13.927197 34.551934-11.701506 2.775206-21.036106-2.084475-29.116131-9.713222-22.984481-21.508873-45.968961-43.017746-68.672032-64.945151-3.901867-3.748371-5.569856-3.329838-9.05319 0.418532-19.224854 20.676925-38.865169 41.075511-58.228169 61.610196-7.381108 7.769964-15.879666 13.3214-26.605961 15.403828-11.701506 2.219551-21.312398-3.330862-24.794709-14.70798-4.178159-13.602809 2.091638-24.284079 10.867512-33.860179 20.892843-22.896476 41.648562-46.210461 63.241346-68.411089 7.937786-8.18952 11.42112-16.514115 10.305717-27.619034-0.418532-4.853541-1.533936-6.242168-6.407943-6.242168-24.376177 0.277316-48.751331-0.141216-73.132624 0.277316-7.79964 0.137123-13.231349-2.775206-17.829064-8.607028-3.483334-4.440126-5.851265-9.434883-7.661494-14.70798-6.54609-19.843954 3.309372-37.305651 24.381293-37.305651 25.507954 0 49.169863 3.864004 73.823356 4.14132 3.901867 0.1361 6.688329 0 6.550183-5.272074-0.280386-17.068747-0.280386-34.278711-0.14224-51.346435 0-4.021593-1.391696-5.132904-5.293563-5.132904-13.507642 0.277316-26.882254 0.1361-40.395012 0.1361l-38.026058 0c-15.604396-0.1361-27.444049-11.518335-27.305903-26.367531 0.14224-15.817244 11.982916-27.612894 27.720342-27.612894 25.494651 0 51.123354 0 76.613912 0.140193 4.460592 0 6.128581-1.109264 5.990434-5.827729-0.13917-8.607028 0-17.209964 0.695848-25.675776 1.39579-17.064654 13.093203-26.91807 30.507828-26.503631 15.59928 0.418532 27.582195 12.628622 27.858488 28.864398 0.138146 7.215332 0.418532 14.431687-0.418532 21.509896-0.696872 6.523577 1.394766 7.910157 7.523347 7.769964 25.352411-0.276293 50.566676 0 75.919087-0.137123C464.338491 375.34385299999997 470.88458 378.25618199999997 475.759611 384.919952zM700.912557 432.057529c-142.56702 0-258.716366-111.155612-258.716366-247.864204 0-136.62775 116.145254-247.864204 258.716366-247.864204 142.745075 0 258.804371 111.237477 258.804371 247.864204C959.716928 320.901917 843.657632 432.057529 700.912557 432.057529zM700.957583 12.596132000000011c-98.702999 0-179.13896 77.05291-179.13896 171.597193 0 94.625124 80.436984 171.597193 179.13896 171.597193 98.78691 0 179.144076-76.972069 179.144076-171.597193C880.100636 89.64904200000001 799.744493 12.596132000000011 700.957583 12.596132000000011zM438.2186 69.791785L183.758164 69.791785c-7.531534 0-40.130999 27.122731-40.130999 36.721343L143.627165 715.178725c6.889921 17.815761 21.810748 32.327266 39.810704 41.012066 0 0 538.376741 2.117221 555.653219 0 17.276479-2.122337 41.487903-31.452339 41.487903-41.012066l0-254.03474 10.929934-2.181689c21.6286-6.271844 42.895973-15.245216 68.685335-26.704199L860.19426 736.434841c0 52.867068-33.655518 95.236038-87.540775 95.236038L161.955602 831.670879c-53.888328 0-97.673553-42.736337-97.673553-95.236038l0-659.286508c0-52.543703 43.230594-83.619466 97.673553-83.619466l319.466985 0c-15.774265 23.323195-29.357632 44.058448-40.389896 66.716494L438.2186 69.791785zM575.063291 622.1233520000001c-18.359137 0-33.214473-12.833283-33.214473-28.596292 0-15.7231 14.855336-28.553313 33.214473-28.553313l112.563682 0c18.36016 0 33.308617 12.830213 33.308617 28.553313 0 15.763009-14.944364 28.596292-33.308617 28.596292L575.063291 622.1233520000001zM669.375284 93.21935699999995c-6.381337 0-12.792351 2.336208-17.643845 7.023974l-52.92335 50.665936c-9.771551 9.311063-9.771551 24.423249 0 33.783431 4.868891 4.66116 11.234879 6.976902 17.644869 6.976902 6.359848 0 12.742209-2.315742 17.638729-6.976902l35.282574-33.783431 102.836133 98.44308c4.845355 4.666276 11.256368 7.002484 17.644869 7.002484 6.40385 0 12.763698-2.336208 17.637706-7.002484 9.750061-9.348925 9.750061-24.444738 0-33.774221l-120.473839-115.335818C682.146145 95.555565 675.736155 93.21935699999995 669.375284 93.21935699999995L669.375284 93.21935699999995 669.375284 93.21935699999995 669.375284 93.21935699999995 669.375284 93.21935699999995zM349.407901 241.12496499999997L236.826823 241.12496499999997c-18.355043 0-33.254382-12.837376-33.254382-28.613688 0-15.693424 14.899338-28.535917 33.254382-28.535917l112.581078 0c18.355043 0 33.250288 12.842493 33.250288 28.535917C382.65819 228.28247199999998 367.762945 241.12496499999997 349.407901 241.12496499999997z"  horiz-adv-x="1024" />

    
    <glyph glyph-name="jindouyindou01" unicode="&#58883;" d="M478.694 674.995c0 0 112.811-59.648 104.755-101.581 0 0 7.936-85.8453-200.047-35.0208 0 0-98.8843 25.1392-77.3547 90.2912 25.5659 77.4059 367.659 54.3915 451.26 38.6987 0 0 247.458-37.12 246.579-249.924 0 0 27.4859-293.82-360.986-367.087 0 0-105.882-11.2299-179.277-4.49707-144.486 13.2864-243.337 76.5696-348.484 198.613 0 0-240.819 319.266 42.6325 459.964C157.764 704.444 285.508 772.932 478.694 674.995L478.694 674.995Z"  horiz-adv-x="1024" />

    
    <glyph glyph-name="019" unicode="&#58901;" d="M512 384m-512 0a512 512 0 1 1 1024 0 512 512 0 1 1-1024 0ZM775.968 575.376L491.184 171.944l-19.128-58.856 213.064-211c182.032 65.4 316.296 230.936 336.28 430.216L775.968 575.376zM649.752 627.096c-56.424 0-106.36-27.256-137.744-69.184-31.424 41.928-81.336 69.184-137.76 69.184-95.104 0-172.184-77.088-172.184-172.192 0-95.104 174.44-242.496 309.944-378 141.008 141.032 309.928 282.896 309.928 378 0 95.104-77.088 172.192-172.184 172.192zM649.752 627.096c-26.616 0-51.752-6.12-74.216-16.936a223.096 223.096 0 0 0 21.6-22.488c75.12-90.448 66.04-191.192 22.712-293.928-30.984-73.44-63.92-134.72-90.248-199.376 137.112 135.2 292.344 269.368 292.344 360.528-0.008 95.112-77.096 172.2-172.192 172.2z"  horiz-adv-x="1024" />

    
    <glyph glyph-name="222" unicode="&#58969;" d="M89.043478-38.956522v845.913044h801.391305v-311.652174h89.043478v311.652174c0 48.973913-40.069565 89.043478-89.043478 89.043478h-801.391305c-48.973913 0-89.043478-40.069565-89.043478-89.043478v-845.913044c0-48.973913 40.069565-89.043478 89.043478-89.043478h445.217392v89.043478h-445.217392zM178.086957 673.391304h623.304347v-89.043478h-623.304347zM1019.547826-65.669565l-106.852174 106.852174c40.069565 44.521739 62.330435 102.4 62.330435 164.730434 0 133.565217-111.304348 244.869565-244.869565 244.869566s-244.869565-111.304348-244.869565-244.869566 111.304348-244.869565 244.869565-244.869565c40.069565 0 75.686957 8.904348 111.304348 26.713044l111.304347-111.304348 66.782609 57.878261z m-440.765217 271.582608c0 84.591304 71.234783 155.826087 155.826087 155.826087s155.826087-71.234783 155.826087-155.826087-71.234783-155.826087-155.826087-155.826086-155.826087 66.782609-155.826087 155.826086zM178.086957 450.782609h311.652173v-89.043479h-311.652173zM178.086957 228.173913h222.608695v-89.043478h-222.608695z"  horiz-adv-x="1024" />

    
    <glyph glyph-name="ziliaoguanli" unicode="&#58910;" d="M576.596 494.654h279.118v-58.898H576.596v58.898zM576.596 367.764h279.118v-58.898H576.596v58.898zM649.805 232.346h205.909v-58.898H649.805v58.898zM632.235-57.49199999999996c0 132.403-90.963 243.658-213.584 275.412 73.625 28.608 126.014 100.05 126.014 183.678 0 108.745-88.436 197.195-197.18 197.195-108.747 0-197.181-88.452-197.181-197.195 0-83.629 52.386-155.07 126.012-183.678C153.692 186.16700000000003 62.73 74.91099999999994 62.73-57.49199999999996h0.052c0-0.346-0.013-0.69-0.013-1.036 0-1.456 0.034-2.904 0.055-4.355h58.995a228.148 228.148 0 0 0-0.055 4.355c0 124.673 101.067 225.74 225.739 225.74s225.74-101.067 225.74-225.74c0-1.456-0.028-2.906-0.056-4.355h58.994c0.021 1.451 0.055 2.9 0.055 4.355 0 0.346-0.012 0.69-0.013 1.036h0.012z m-422.043 459.09c0 75.708 61.596 137.289 137.292 137.289 75.694 0 137.29-61.58 137.29-137.29 0-75.684-61.596-137.283-137.29-137.283-75.695 0-137.292 61.599-137.292 137.284zM907.826 604.184H518.139v-58.899h361.487c11.304 0 20.466-9.162 20.466-20.466v-508.336c0-11.304-9.162-20.466-20.466-20.466h-148.98v-58.899h177.18c28.258 0 51.166 22.908 51.166 51.165V553.018c-0.001 28.258-22.908 51.166-51.166 51.166z"  horiz-adv-x="1024" />

    
    <glyph glyph-name="zhuanzeng" unicode="&#58942;" d="M573.952 291.84c5.12-3.072 10.752-5.12 15.872-5.12 5.632 0 10.752 1.536 16.384 5.12l1.024 0.512c33.792 23.04 206.848 144.896 273.408 266.752 18.432 28.672 28.16 60.928 28.16 93.696 0 95.744-77.824 173.568-173.568 173.568-68.608 0-118.272-53.76-144.384-83.968-24.576 28.16-76.288 83.968-144.384 83.968-95.744 0-173.568-77.824-173.568-173.568 0-33.792 9.728-66.048 27.648-93.696 71.68-134.656 271.36-266.24 273.408-267.264z m160.256 476.672c63.488 0 115.2-51.712 115.2-115.2 0-22.528-6.144-44.032-18.432-62.464-0.512-0.512-0.512-1.024-1.024-1.536l-0.512-0.512c-51.2-95.232-182.272-195.584-239.616-236.544C532.48 393.216 400.896 494.08 350.208 588.8l-0.512 1.024c0 0.512-0.512 1.024-1.024 1.536-11.776 18.432-18.432 40.448-18.432 62.464 0 62.976 51.712 114.688 115.2 114.688 46.08 0 84.992-45.568 105.984-70.144 13.312-15.872 22.528-26.112 38.4-26.112s24.576 10.24 38.4 25.6c20.992 25.088 59.904 70.656 105.984 70.656zM882.176 306.176c-10.752 6.144-22.016 9.216-32.768 9.216-32.256 0-57.344-25.6-68.096-36.864-28.672-29.696-63.488-59.392-79.36-72.704-6.656 2.56-14.336 4.096-23.552 4.608-53.76 3.072-139.264 12.8-159.232 25.088-22.528 13.312-40.448 26.112-56.32 37.888l-2.56 2.048c-47.616 33.792-84.992 60.928-177.664 60.928-26.112 0-49.152-6.656-74.24-14.336l-2.56-1.024c-22.016-6.656-43.008-13.312-67.584-13.312-31.744 0-57.856-26.112-57.856-57.856V115.2c0-31.744 26.112-57.856 57.856-57.856 57.856 0 129.536-3.072 144.896-7.68 31.232-10.24 105.984-54.272 129.536-69.12l1.024-1.024h0.512c9.728-5.12 20.992-8.192 32.256-8.192H691.2c28.16 0 58.368 25.088 69.12 43.008 12.8 20.992 48.128 71.68 142.848 192.512 3.072 4.096 5.12 6.656 5.12 6.656 0 0.512 0.512 0.512 0.512 1.024 0.512 1.024 1.536 2.048 2.048 3.584 15.872 30.72 3.584 69.12-28.672 88.064z m-205.824-174.08l-183.296-9.728c-13.312 0.512-50.688 27.136-68.608 39.936-3.072 2.048-5.632 4.096-8.704 6.144-3.072 2.048-5.632 4.096-8.704 6.144-14.848 10.752-26.112 17.408-35.328 22.016-4.096 2.048-8.192 3.072-12.8 3.072-10.752 0-20.992-6.144-26.112-15.872-7.168-13.824-1.536-31.744 12.8-39.424 9.728-4.608 22.016-13.312 35.328-22.528 3.584-2.56 6.656-4.608 10.24-7.168l1.536-1.024C429.056 88.064 463.36 64 494.08 64l183.296 9.728c36.864 0.512 67.072 30.72 67.072 67.584 0 6.656-1.024 13.824-3.072 20.48 22.528 18.432 54.784 47.104 81.408 74.752 12.288 12.8 20.48 18.944 26.112 18.944 1.024 0 2.56-0.512 3.584-1.024 4.096-2.56 7.68-7.168 6.656-11.776C849.92 230.912 742.4 94.72 709.12 40.448c-3.072-5.12-15.36-13.824-18.944-14.336H445.44c-1.536 0-3.072 0.512-4.096 1.024l-0.512 0.512c-29.696 18.432-102.912 61.952-140.288 74.24-31.744 10.24-140.288 10.752-162.816 11.264V246.784c35.328 0 65.024 9.728 87.04 16.384 20.48 6.656 37.888 12.288 56.832 12.288 74.752 0 101.376-18.944 144.896-50.688l2.56-2.048c16.384-11.776 35.328-25.6 58.88-39.936 11.264-7.168 29.696-12.8 57.856-18.432 49.152-9.728 107.52-13.312 126.976-14.336h3.072a9.178 9.178 0 0 0 9.216-9.216c0.512-4.608-3.584-8.704-8.704-8.704z"  horiz-adv-x="1024" />

    
    <glyph glyph-name="yinhangqia1" unicode="&#59044;" d="M861.904 672H170.128A74.208 74.208 0 0 1 96 597.872v-444.72a74.208 74.208 0 0 1 74.128-74.128H861.92a74.208 74.208 0 0 1 74.128 74.128V597.872A74.24 74.24 0 0 1 861.904 672z m-691.776-49.424H861.92c13.616 0 24.704-11.072 24.704-24.704V528H145.408v69.872c0 13.632 11.088 24.704 24.72 24.704z m691.776-494.112H170.128a24.736 24.736 0 0 0-24.704 24.704V443.936h741.2v-290.768a24.736 24.736 0 0 0-24.72-24.704zM832 224a32 32 0 0 0-32-32H592a32 32 0 1 0 0 64h208a32 32 0 0 0 32-32z"  horiz-adv-x="1024" />

    
    <glyph glyph-name="muludan" unicode="&#58928;" d="M882.83 712L590.27 830a27 27 0 0 1-26.52-3.61L433.6 726.83a27 27 0 0 0-26.52-3.61l-250.37 101A21 21 0 0 1 128 804.6v-729a21.12 21.12 0 0 1 13.17-19.6l292.56-118a27 27 0 0 1 26.52 3.61l130.15 99.6a27 27 0 0 0 26.52 3.61l250.37-101A21 21 0 0 1 896-36.60000000000002v729a21.12 21.12 0 0 1-13.17 19.6zM384 27.539999999999964l-188 75.84a6.4 6.4 0 0 0-4 5.94V731a6.35 6.35 0 0 0 8.71 5.94L384 663z m64 628.12l128 89.89v-633.2l-128-89.9zM823.29 31L640 105V740.46l188-75.84a6.4 6.4 0 0 0 4-5.94V37a6.35 6.35 0 0 0-8.71-6z"  horiz-adv-x="1024" />

    
    <glyph glyph-name="caigou-xianxing" unicode="&#59527;" d="M821.6 640l-78.4-256H342.4L272 640h549.6M216 832H64v-64h104.8l18.4-64 100-361.6c1.6-4.8 4-8.8 7.2-12l-52-83.2c-6.4-5.6-10.4-14.4-10.4-23.2 0-17.6 14.4-32 32-32h568v64H323.2l40 64H768c13.6 0 24.8 8.8 29.6 22.4l97.6 318.4c6.4 20.8-8 43.2-29.6 43.2H252.8l-18.4 64L216 832zM320 64m-64 0a64 64 0 1 1 128 0 64 64 0 1 1-128 0ZM768 64m-64 0a64 64 0 1 1 128 0 64 64 0 1 1-128 0Z"  horiz-adv-x="1024" />

    
    <glyph glyph-name="caigou" unicode="&#59528;" d="M768 320c13.6 0 24.8 8.8 29.6 22.4l97.6 318.4c6.4 20.8-8 43.2-29.6 43.2H252.8l-18.4 64L216 832H64v-64h104.8l18.4-64 100-361.6c1.6-4.8 4-8.8 7.2-12l-52-83.2c-6.4-5.6-10.4-14.4-10.4-23.2 0-17.6 14.4-32 32-32h568v64H323.2l40 64H768zM320 64m-64 0a64 64 0 1 1 128 0 64 64 0 1 1-128 0ZM768 64m-64 0a64 64 0 1 1 128 0 64 64 0 1 1-128 0Z"  horiz-adv-x="1024" />

    
    <glyph glyph-name="shangpin" unicode="&#59529;" d="M832 640H640V735.2c0 17.6-14.4 32.8-32.8 32.8H416c-17.6 0-32.8-14.4-32.8-32.8V640H192l-64-576c0-35.2 28.8-64 64-64h640c35.2 0 64 28.8 64 64l-64 576z m-384 64h128v-64H448v64z m-0.8-192H384v63.2h63.2V512zM640 512h-63.2v63.2H640V512z"  horiz-adv-x="1024" />

    
    <glyph glyph-name="shangpin-xianxing" unicode="&#59530;" d="M832 640H640V735.2c0 17.6-14.4 32.8-32.8 32.8H416c-17.6 0-32.8-14.4-32.8-32.8V640H192l-64-576c0-35.2 28.8-64 64-64h640c35.2 0 64 28.8 64 64l-64 576z m-384 64h128v-64H448v64z m326.4-128l56.8-512H192l56.8 512M447.2 543.2H384V480h63.2v63.2zM640 543.2h-63.2V480H640v63.2z"  horiz-adv-x="1024" />

    
    <glyph glyph-name="jia" unicode="&#59617;" d="M808.63085938 408.71923828H537.33721924V680.63085938h-50.67443848v-271.9116211H215.36914062v-51.29241943h271.29364014V87.36914062000005h50.67443848V357.42681885H808.63085938z"  horiz-adv-x="1024" />

    
    <glyph glyph-name="jian" unicode="&#59618;" d="M215.36914062 409.33721924h593.26171875v-50.67443848H215.36914062z"  horiz-adv-x="1024" />

    
    <glyph glyph-name="shangyiyehoutuifanhui" unicode="&#59631;" d="M319.64 383.984l336.016 336.008 45.248-45.248L364.896 338.72zM365.216 429.536l339.976-339.968-45.256-45.256-339.976 339.976z"  horiz-adv-x="1024" />

    
    <glyph glyph-name="shuaxin" unicode="&#59643;" d="M896.8 383.2v2.4c0 210.4-172 382.4-384 382.4H512c-210.4 0-382.4-172-382.4-384s172-384 384-384c17.6 0 32 14.4 32 32s-14.4 32-32 32c-176 0-320 144-320 320C193.6 560.8 336 704 512 704h0.8c176.8 0 320-142.4 320-318.4v-2.4h-64l97.6-96.8 94.4 96.8h-64z"  horiz-adv-x="1024" />

    
    <glyph glyph-name="tuikuan-xi" unicode="&#59669;" d="M528.8 416v-96H704v-32H528.8v-224h-32V288H320v32h176.8V416H320v32h156.8L331.2 593.6l22.4 22.4 159.2-159.2L672 616l22.4-22.4L548 448H704v-32H528.8z m400.8 131.2C864 713.6 701.6 832 512 832 264.8 832 64 631.2 64 384s200.8-448 448-448c109.6 0 210.4 39.2 288 104.8v-72.8h32v128H704v-32h73.6c-72-60-164.8-96-265.6-96-229.6 0-416 186.4-416 416s186.4 416 416 416c176.8 0 328-110.4 388-266.4 1.6-6.4 8-12 15.2-12 8.8 0 16 7.2 16 16 0.8 4 0 7.2-1.6 9.6z"  horiz-adv-x="1024" />

    
    <glyph glyph-name="yinhangqia" unicode="&#58892;" d="M1487.948 88.739c0-0.049 0-0.107 0-0.165 0-20.253-16.418-36.671-36.671-36.671-0.058 0-0.116 0-0.174 0l-161.312-0c-0.736-0.052-1.594-0.082-2.46-0.082-20.344 0-36.836 16.492-36.836 36.836 0 20.344 16.492 36.836 36.836 36.836 0.866 0 1.724-0.030 2.575-0.089l161.37 0.006c0.049 0 0.107 0 0.165 0 20.253 0 36.671-16.418 36.671-36.671 0-0.058-0-0.116-0-0.174zM778.696 475.020h-592.003c-0.736 0.052-1.594 0.082-2.46 0.082-20.344 0-36.836-16.492-36.836-36.836 0-20.344 16.492-36.836 36.836-36.836 0.866 0 1.724 0.030 2.575 0.089l589.914-0.006c0.049-0 0.107-0 0.165-0 20.253 0 36.671 16.418 36.671 36.671 0 0.058-0 0.116-0 0.174 0.030 0.532 0.047 1.164 0.047 1.801 0 19.246-15.522 34.866-34.73 35.026zM1128.306 125.41h-161.485c-0.736 0.052-1.594 0.082-2.46 0.082-20.344 0-36.836-16.492-36.836-36.836 0-20.344 16.492-36.836 36.836-36.836 0.866 0 1.724 0.030 2.575 0.089l161.37-0.006c19.257 1.328 34.376 17.275 34.376 36.753s-15.119 35.425-34.261 36.747zM1612.597 787.631v-807.261c0.030-0.944 0.048-2.055 0.048-3.169 0-57.043-45.382-103.487-102.011-105.196l-1408.466-0.004c-56.786 1.713-102.168 48.157-102.168 105.2 0 1.115 0.017 2.225 0.052 3.331l-0.004 807.1c-0.030 0.944-0.048 2.055-0.048 3.169 0 57.043 45.382 103.487 102.011 105.196l1408.466 0.004c56.917-2.438 102.137-49.172 102.137-106.469 0-0.668-0.006-1.335-0.018-2.001zM69.444 787.631v-124.649h1471.62v124.649c0.059 0.754 0.092 1.632 0.092 2.518 0 17.714-13.338 32.313-30.518 34.303l-1408.469 0.015c-18.399-0.952-32.958-16.103-32.958-34.654 0-0.767 0.025-1.529 0.074-2.284zM1541.063-18.151v607.625h-1471.455v-608.447c-0.059-0.754-0.092-1.632-0.092-2.518 0-17.714 13.338-32.313 30.518-34.303l1408.469-0.015c18.68 2.592 32.907 18.458 32.907 37.646 0 0.409-0.006 0.817-0.019 1.223z"  horiz-adv-x="1612" />

    
    <glyph glyph-name="zongyingyee" unicode="&#59247;" d="M957.009771 687.18823c0 21.788236-15.185864 52.68185-87.85186 76.041884-49.074695 15.795754-113.916493 24.464181-182.454472 24.464181-68.593238 0-133.435035-8.698103-182.510754-24.464181-72.608691-23.388686-87.85186-54.253648-87.85186-76.041884 0-3.228531-0.494257-6.516414 0.203638-9.715269-0.697895-2.007727-1.861394-4.102435-1.861394-6.138814v-95.269807c0-3.287883 0.320295-6.545066 1.01819-9.744945-0.697895-1.979074-1.01819-4.01443-1.01819-6.138813v-46.747697c-31.562856 2.880607-53.292764 4.334725-81.539085 4.334725-68.710918 0-133.088134-8.726755-182.103477-24.465205-72.609715-23.359011-87.649246-54.194296-87.649246-76.012208 0-3.316535 2.356674-6.574742 3.054569-9.774621-0.697895-2.006703 0.931209-4.072759 0.931208-6.109138v-95.254457c0-3.316535 0.348947-6.517437 1.046843-9.716292-0.698918-2.094708-1.046842-4.072759-1.046843-6.109138v-95.299483c0-3.316535 0.348947-6.574742 1.046843-9.774621-0.698918-2.036379-1.046842-4.071735-1.046843-6.049786v-95.299483c0-21.760606 13.381775-52.65422 85.960791-75.983556 48.987714-15.767102 112.839974-24.49488 181.550892-24.49488s132.941801 8.726755 181.929516 24.49488c72.608691 23.329335 87.269599 54.222949 87.269599 75.983556v62.659085c31.591509-2.90926 54.253648-4.364401 82.499969-4.364401 68.593238 0 130.614803 8.726755 179.717128 24.436552 72.608691 23.387663 85.059258 54.282301 85.059258 76.041883v95.254458c0 2.095731-0.347924 4.15974-1.045819 6.167466 0.698918 3.111874 1.045819 6.399757 1.045819 9.68764v95.269807c0 2.12336-0.347924 4.188392-1.045819 6.167467 0.698918 3.112897 1.045819 6.2831 1.045819 9.715269v95.241154c0 2.153036-0.347924 4.218068-1.045819 6.167467a44.350091 44.350091 0 0 1 1.045819 9.716292v95.269807c0 2.093684 2.501984 4.15974 1.804089 6.138814 0.699941 3.112897 3.841491 6.399757 3.841491 9.716292zM686.703439 184.38059c-28.623921 0-56.55097 1.630127-82.876546 4.771677 0.261966 1.919722 0.261966 3.840468 0.261967 5.875824v62.660108c31.591509-2.967588 54.340629-4.364401 82.499969-4.364401 68.535933 0 138.235364 8.726755 187.398064 24.493858 15.650445 5.062296 14.254655 10.705829 45.846164 16.814967v-51.954279c0-6.225795-16.726963-21.817911-61.584613-36.246529-44.100404-14.196327-108.127649-22.051225-171.545005-22.051225z m171.545005 133.174092c-44.24469-14.195304-105.857956-22.050202-169.128979-22.050202-28.479635 0-57.570183 1.629103-84.069721 4.770653 0.202615 1.919722-0.959861 3.898797-0.959861 5.934153v62.646806c31.591509-2.938935 54.048987-4.394077 82.499969-4.394077 68.476581 0 138.176013 8.727779 187.398064 24.466228 15.650445 5.061272 14.254655 10.733459 45.846164 16.813944v-51.954279c-0.001023-6.226818-16.727986-21.789259-61.585636-36.233226z m0 111.13924c-44.24469-14.196327-105.857956-22.021549-169.128979-22.02155-28.362978 0-57.394175 1.62808-83.98274 4.770654 0.233314 1.89107-0.233314 3.868097-0.233314 5.876847 0 21.788236-8.203846 52.680826-80.869842 76.04086-16.116049 5.119601-46.195112 9.572006-46.195111 13.178138v10.327206c0-6.167466 18.065448-11.811 33.685193-16.813944 48.988738-15.767102 110.135376-24.465205 178.845271-24.465205 68.653613 0 136.461975 8.726755 185.478342 24.465205 15.651468 5.03262 12.393261 10.703783 43.98477 16.813944v-51.92665c0.001023-6.224772-16.72594-21.816888-61.58359-36.245505z m-1.424443 111.152542c-45.119617-14.253632-108.156302-22.050202-172.969446-22.050202-64.871473 0-127.006626 7.79657-172.096567 22.050202-45.904493 14.399965-59.57791 29.993105-59.57791 36.217876v51.925627c0-6.138814 26.239618-11.751648 42.23901-16.813944 50.26787-15.795754 116.709095-24.493857 186.816826-24.493858 70.077032 0 141.407614 8.726755 191.645808 24.493858 16.087397 5.090948 14.631232 10.734482 46.951335 16.813944v-51.925627c0-6.224772-17.105586-21.817911-63.009056-36.217876z m-3.404539 111.095238c-44.188408-14.224979-103.416348-22.020526-166.716023-22.020527-63.35698 0-122.584919 7.795547-166.743652 22.020527-44.88528 14.45727-56.753585 30.020734-56.753585 36.216853 0 6.255471 11.868305 21.847587 56.753585 36.276204 44.158732 14.196327 103.386672 21.991874 166.743652 21.991874 63.359027 0 122.527614-7.79657 166.743652-21.991874 44.857651-14.458293 56.726979-30.05041 56.726979-36.276204-0.027629-6.195096-11.897981-21.75856-56.754608-36.216853zM572.526003 135.859503v-51.954279c0-6.225795-19.402909-21.817911-64.318887-36.247552-44.217061-14.195304-107.196441-21.99085-170.496116-21.99085-63.330374 0-130.178875 7.795547-174.367283 21.99085-44.855604 14.429641-64.376193 30.021757-64.376193 36.247552v51.895951c31.591509-6.108115 31.097252-11.751648 46.718021-16.755616 49.046043-15.824407 116.709095-24.435529 185.362708-24.435529 68.622914 0 142.42478 8.668427 191.441147 24.435529 15.740496 5.002944 18.473747 10.646478 50.036603 16.813944z m-64.317864 22.922059c-44.188408-14.195304-107.167788-21.991874-170.496116-21.991873-63.387679 0-130.207527 7.79657-174.367283 21.991873-44.855604 14.429641-64.376193 30.020734-64.376193 36.246529v51.954279c31.591509-6.166443 31.097252-11.809977 46.718022-16.814967 49.134047-15.824407 116.854405-24.493857 185.362708-24.493858 68.535933 0 142.308123 8.726755 191.441146 24.493858 15.679098 5.004991 18.4717 10.647501 50.03558 16.814967v-51.954279c0-6.225795-19.402909-21.816888-64.317864-36.246529z m0 111.12389c-44.13008-14.195304-107.10946-21.99085-170.496116-21.99085-63.444984 0-130.265856 7.795547-174.336584 21.99085-44.886303 14.486946-64.405869 30.080086-64.405868 36.247552v51.939953c31.591509-6.196119 31.155581-11.839653 46.718021-16.84362 49.161676-15.766079 116.884081-24.450878 185.362708-24.450878 68.50728 0 142.308123 8.713452 191.441147 24.450878 15.592117 5.003967 18.4717 10.676154 50.03558 16.84362v-51.939953c-0.001023-6.16849-19.403932-21.760606-64.318888-36.247552z m-7.504928 111.167892c-44.13008-14.224979-103.356996-21.991874-166.743652-21.991873-63.417355 0-122.644271 7.766894-166.744675 21.991873-44.856627 14.428617-56.725956 30.021757-56.725955 36.217877s11.868305 21.816888 56.725955 36.245505c44.158732 14.196327 103.386672 22.021549 166.744675 22.021549 63.35698 0 122.583896-7.825222 166.743652-22.021549 44.914956-14.45727 56.783261-30.05041 56.783261-36.245505s-11.926634-21.789259-56.783261-36.217877z m0 0"  horiz-adv-x="1024" />

    
    <glyph glyph-name="kaifang" unicode="&#59805;" d="M556.199665 382.692215h-18.419512 18.419512zM510.408759 689.524438c-202.755844 0-377.122103-125.735679-446.092941-304.170604 68.970838-178.433902 243.338121-304.168558 446.092941-304.168558 202.759937 0 377.183502 125.734656 446.091918 304.168558C887.59226 563.788759 713.168696 689.524438 510.408759 689.524438m0-506.931564c-113.524566 0-202.755844 89.176019-202.755844 202.76096 0 113.586988 89.231277 202.76096 202.755844 202.76096 113.591081 0 202.759937-89.173972 202.759937-202.76096 0-113.584941-89.168856-202.76096-202.759937-202.76096m0 324.43002c-68.908416 0-121.662921-52.754504-121.662921-121.66906s52.754504-121.662921 121.662921-121.66292c68.976978 0 121.66906 52.749388 121.66906 121.66292S579.384713 507.022894 510.408759 507.022894"  horiz-adv-x="1024" />

    
    <glyph glyph-name="douzi" unicode="&#58917;" d="M989.696 305.664c-1.536 2.56-3.072 4.608-5.12 6.144C945.664 385.024 855.552 381.952 783.36 373.76c-37.376-4.096-75.776-11.264-111.104-25.088 32.768 51.2 52.736 105.984 56.32 174.592 4.608 87.552 10.752 197.632-53.76 266.24-26.112 28.16-60.928 41.472-98.816 45.568-41.472 4.096-94.208 5.632-132.096-14.336-79.36-41.984-114.688-161.28-134.144-242.176v-1.024C257.024 515.072 196.608 476.672 119.296 450.56c-61.44-20.48-103.424-58.88-110.592-125.952-6.144-60.416 22.016-134.144 64.512-177.664 50.688-52.224 138.24-58.368 206.336-58.368 22.016 0 22.016 34.816 0 34.304-66.048 0-152.576 4.608-194.048 63.488-37.376 52.736-64.512 134.656-20.992 191.488C99.328 422.912 171.52 427.52 220.16 455.168c23.552 13.824 45.056 29.696 65.536 47.616-9.216-17.92-11.264-37.376 1.024-53.248-13.824-9.216-27.136-17.92-40.96-26.624-19.456-11.776-36.864-15.872-59.904-15.872-22.016 0-22.016-34.816 0-34.304 22.528 0 43.52 2.048 63.488 12.8 23.04 11.776 44.544 28.16 66.56 42.496 3.072 2.048 4.608 4.096 6.144 6.656 14.336 0.512 29.696 6.656 40.448 14.848 22.528 16.896 31.744 43.52 31.744 70.656 2.048 1.024 4.096 3.072 5.632 5.12 22.016 30.72 53.248 59.392 60.416 97.792 4.096 21.504-29.184 31.232-33.28 9.216-5.12-28.672-27.136-52.224-45.568-75.264-3.584 5.12-10.24 9.216-17.92 7.68-9.216-1.536-19.456-5.632-30.208-12.288 2.048 2.048 3.584 4.608 5.632 6.656 2.56 3.072 3.584 6.144 4.096 9.728 0 0.512 0.512 0.512 0.512 1.024 16.384 68.608 45.056 172.032 107.008 214.528 30.208 20.992 75.776 19.456 112.128 17.408 47.104-3.072 83.968-20.992 107.52-62.976 36.352-64.512 29.184-158.208 23.552-229.888C686.08 420.864 645.632 359.936 588.8 296.448c-52.736 15.36-109.568 27.648-162.304 5.12-44.544-18.944-70.656-60.416-75.264-108.032-10.24-110.592 86.016-194.56 183.808-222.72 114.176-32.768 258.56-29.184 355.328 46.08 43.008 33.28 86.528 74.24 101.888 128 14.848 52.224 20.48 110.592-2.56 160.768zM348.672 483.84c-6.656-8.192-36.352-26.624-33.792-3.584 2.048 19.456 25.088 38.912 45.056 47.104 0.512-14.848-1.536-30.72-11.264-43.52z m512.512-445.952c-77.312-55.808-184.32-58.368-275.456-43.008-83.456 14.336-172.032 59.392-195.584 147.456-13.824 51.712 2.56 112.128 57.344 130.56 47.616 15.872 97.792 0 143.872-13.312 3.072-1.024 6.144-1.024 8.192-0.512 4.096 0 8.192 1.536 11.776 5.632 38.912 47.104 97.28 64 156.16 72.192 64 9.216 156.16 23.04 189.952-47.104 1.024-2.048 2.56-4.096 4.096-5.12 40.448-94.208-26.624-193.536-100.352-246.784zM558.08 216.576c-16.896 2.56-30.208 9.216-41.472 22.528-14.336 16.896-38.912-7.68-24.576-24.576s34.816-28.16 56.832-31.232c9.216-1.024 18.432 2.048 20.992 12.288 2.56 7.68-2.56 19.456-11.776 20.992zM703.488 243.712c-30.208-18.944-71.168-20.992-105.472-27.648-22.016-4.096-12.8-37.376 9.216-33.28 37.888 7.168 80.384 10.24 113.664 30.72 18.944 12.288 1.536 41.984-17.408 30.208zM775.168 277.504c-9.216-6.144-18.432-10.752-29.184-13.824-21.504-6.144-12.288-39.424 9.216-33.28 13.312 3.584 26.112 9.728 37.376 17.408 7.68 5.12 11.264 14.848 6.144 23.552-4.608 7.168-15.872 11.264-23.552 6.144z"  horiz-adv-x="1024" />

    
    <glyph glyph-name="xin" unicode="&#58915;" d="M1066.676944 794.974109A351.539301 351.539301 0 0 1 584.680751 805.571448a351.539301 351.539301 0 0 1-481.996194-10.597339 344.230792 344.230792 0 0 1 0-490.035554l403.795143-400.140888a109.627641 109.627641 0 0 1 156.402101 0l403.795143 399.775463a344.230792 344.230792 0 0 1 0 490.400979z m-52.255842-438.510563L610.625959-43.67734199999995a36.542547 36.542547 0 0 0-51.890417 0L154.574973 356.46354599999995a271.876549 271.876549 0 0 0 0 386.985572A277.357931 277.357931 0 0 0 534.982887 749.661351L584.680751 706.906571 634.013189 749.661351a277.357931 277.357931 0 0 0 380.407913-8.03936 271.876549 271.876549 0 0 0 0-385.158445zM338.018559 713.118804A155.305824 155.305824 0 0 1 182.712735 557.8129799999999a18.271273 18.271273 0 0 1 36.542546 0A118.763277 118.763277 0 0 0 338.018559 676.5762569999999a18.271273 18.271273 0 0 1 0 36.542547z"  horiz-adv-x="1170" />

    
    <glyph glyph-name="xf" unicode="&#58885;" d="M512 834C263.47255859375 834 62 632.52744140625 62 384s201.47255859375002-450 450-450 450 201.47255859375002 450 450S760.52744140625 834 512 834z m245.278125-337.3048828125L478.85380859374993 218.27255859374998c-10.9828125-10.9828125-28.791210937500004-10.9828125-39.7740234375 0L266.721875 390.62958984375c-10.9845703125 10.981933593749998-10.9845703125 28.791210937500004 0 39.7740234375l13.257421874999999 13.257421874999999c10.9845703125 10.9845703125 28.79296875 10.9845703125 39.77578125 0L458.96591796875003 304.4501953125l245.2763671875 245.2763671875c10.98369140625 10.9828125 28.79296875 10.9828125 39.77578125 0l13.257421874999999-13.257421874999999c10.986328125-10.98369140625 10.986328125-28.79033203125 0.0026367187499999997-39.7740234375z"  horiz-adv-x="1024" />

    
    <glyph glyph-name="huigou" unicode="&#58929;" d="M735.9488-93.2864H150.1184c-57.344 0-103.936 46.592-103.936 103.936v291.84h69.632v-291.84c0-18.944 15.36-34.304 34.304-34.304h585.8304c18.944 0 34.304 15.36 34.304 34.304V294.8096h69.632v-284.16c-0.1024-57.344-46.6944-103.936-103.936-103.936zM64.9216 467.456l-43.9296 53.9648L423.936 848.896c17.408 14.1312 42.5984 13.2096 58.88-2.1504l263.9872-244.8384L699.392 550.912 451.072 781.2096 64.9216 467.456zM899.9936 527.36c-52.9408 7.4752-93.184-23.2448-108.544-42.496l32.3584-71.168c0.2048 0.2048 40.8576 42.8032 67.3792 39.1168 18.0224-2.56 58.368 1.9456 111.8208-91.2384V464.896c-33.1776 36.1472-67.2768 57.344-103.0144 62.464zM823.808 578.1504L694.0672 463.7696l134.8608-100.6592-1.3312 218.3168zM608.256 470.528l-116.224-156.672h132.5056v-43.7248H476.8768V209.92h147.6608v-44.2368H476.8768v-87.6544h-54.8864v87.6544h-151.552V209.92h151.552v60.2112h-151.552v43.7248h135.3728l-115.0976 156.672h61.8496c53.76-98.2016 86.4256-119.5008 97.9968-145.8176h1.1264c7.8848 12.3904 16.5888 22.528 42.7008 64l55.296 81.8176H608.256z"  horiz-adv-x="1024" />

    
    <glyph glyph-name="jiangli" unicode="&#58886;" d="M803.8 229c21.4 26.7 39 56.2 52.4 87.9 19.6 46.2 29.5 95.4 29.5 146s-9.9 99.7-29.5 146c-18.9 44.7-45.9 84.7-80.3 119.2-34.4 34.4-74.5 61.5-119.2 80.3-46.2 19.6-95.4 29.5-146 29.5S411 828 364.7 808.4c-44.7-18.9-84.7-45.9-119.2-80.3-34.4-34.4-61.5-74.5-80.3-119.2-19.6-46.2-29.5-95.4-29.5-146 0-85.2 28.9-167.4 81.7-233.6l-76.1-121.5-0.2-0.3c-10.7-17.5-11-39.4-0.7-57.2 10.3-17.8 29.4-28.5 49.9-28l50.5 1.2 29.3-55c9.4-17.7 27.7-29.1 47.8-29.6h1.6c19.4 0 37.6 10.2 47.8 26.8L443.5 94c22-4 44.4-6 67.2-6 22.3 0 44.3 1.9 65.9 5.8l74.2-126.5 0.3-0.6c10.2-16.6 28.4-26.8 47.8-26.8h1.6c20 0.6 38.4 11.9 47.8 29.6l29.3 55 50.5-1.2c20.6-0.5 39.6 10.2 49.9 28 10.3 17.8 10 39.7-0.7 57.2L803.8 229zM320.3 25.899999999999977L283 95.79999999999995l-66-1.6 51.6 82.4c25.7-21.8 54.2-40 85.2-54.3 6.2-2.9 12.5-5.6 18.8-8.1l-52.3-88.3z m115.8 142.5c-0.7 0.2-1.4 0.4-2.1 0.5-17.2 4.5-34 10.5-50.3 18-38.6 17.8-72.5 43.1-100.8 75.2-48.9 55.4-75.8 126.7-75.8 200.7 0 81.1 31.6 157.4 88.9 214.7s133.6 88.9 214.7 88.9 157.4-31.6 214.7-88.9 88.9-133.6 88.9-214.7-31.6-157.4-88.9-214.7-133.6-88.9-214.7-88.9c-25.4 0-50.4 3.1-74.6 9.2z m299.4-71.6l-37.2-69.7-50.7 86.6c3.1 1.2 6.1 2.4 9.1 3.7 34.9 14.8 67 34.5 95.8 58.8l49.4-81.1-66.4 1.7z"  horiz-adv-x="1024" />

    
    <glyph glyph-name="tiaozhuanqianwangyoujiantouxiangyouxiayibuxianxing" unicode="&#59666;" d="M677.319111 383.260444L287.061333 773.489778a28.444444 28.444444 0 0 0 40.248889 40.220444l410.339556-410.339555a28.444444 28.444444 0 0 0 0-40.220445L327.310222-47.217778a28.444444 28.444444 0 0 0-40.220444 40.220445l390.229333 390.229333z"  horiz-adv-x="1024" />

    
    <glyph glyph-name="aixin1" unicode="&#58903;" d="M511.3-8.9c-16.5 0-33.1 3.2-48.8 9.7-42.2 17.3-107.1 49.3-176.2 103.2-10.9 8.5-12.8 24.2-4.3 35.1 8.5 10.9 24.2 12.8 35.1 4.3 64.6-50.4 125.1-80.2 164.4-96.3 19.2-7.9 40.4-7.9 59.7 0 51.4 21.1 151.3 70.9 243.7 168.1 72.4 76.2 116.1 169.3 122.8 262.2 5.6 77.2-15.6 149.9-55.4 189.6-37.3 37.3-87.2 57.9-140.5 57.9-53.2 0-103.1-20.6-140.5-57.9l-11.2-11.2c-26.9-26.9-70.7-26.9-97.6 0L451.3 667c-50.7 50.7-125.3 70-194.9 50.4-14.3-4-28.1-9.6-41.1-16.7-16.5-9-31.6-20.3-45-33.7-39.2-39.2-60.1-108-55.7-184 5.1-89.8 45-180.7 112.4-256.1 9.2-10.3 8.3-26.1-2-35.3-10.3-9.2-26.1-8.3-35.3 2-39.3 44-70.1 92.2-91.5 143.5-19.6 46.8-30.9 95-33.6 143.1-5.1 90 21.2 173.1 70.3 222.2 16.8 16.8 35.7 31 56.4 42.3 16.3 8.9 33.6 15.9 51.5 21 86.9 24.4 180.3 0.2 243.7-63.2l11.2-11.2c7.4-7.4 19.5-7.4 26.9 0l11.2 11.2c46.8 46.8 109.2 72.6 175.8 72.6 66.6 0 129-25.8 175.8-72.6 50.5-50.5 76.6-136 69.9-228.6-3.6-49.6-16.3-99.1-37.6-146.9-23.4-52.5-56.6-101.6-98.9-146.1C722 77 614.9 23.5 559.9 1c-15.5-6.7-32-9.9-48.6-9.9z"  horiz-adv-x="1024" />

    
    <glyph glyph-name="jiangli1" unicode="&#58891;" d="M512 874.24c-198.482 0-359.387-160.904-359.387-359.382 0-198.481 160.905-359.386 359.387-359.386 198.478 0 359.382 160.905 359.382 359.386C871.382 713.336 710.478 874.24 512 874.24z m0-670.848c-172.018 0-311.466 139.448-311.466 311.466S339.982 826.324 512 826.324c172.013 0 311.466-139.448 311.466-311.466S684.013 203.392 512 203.392z m0 0M512 778.403c-145.558 0-263.55-117.991-263.55-263.545 0-145.557 117.992-263.549 263.55-263.549 145.553 0 263.545 117.992 263.545 263.549 0 145.554-117.992 263.545-263.545 263.545z m0-479.179c-119.094 0-215.629 96.54-215.629 215.634 0 119.089 96.535 215.629 215.629 215.629s215.629-96.54 215.629-215.629c0-119.094-96.535-215.634-215.629-215.634z m0 0M735.56 275.245l91.427-177.178c-37.135 14.506-80.02 13.721-118.23-5.991-38.208-19.723-63.699-54.221-73.396-92.886l-91.423 177.167L512 159.87l134.93-261.464 3.208-6.224 31.938 16.482-3.208 6.224c-27.305 52.915-6.552 117.95 46.362 145.255 52.924 27.3 117.945 6.537 145.26-46.377l3.207-6.214 31.938 16.472-3.217 6.224-134.922 261.47-31.937-16.473z m0 0M273.399 246.106l-76.386-148.039c37.13 14.506 80.015 13.721 118.23-5.986 38.204-19.728 63.694-54.226 73.396-92.891l81.869 158.653 39.226-2.361-132.67-257.075-3.205-6.224-31.938 16.483 3.207 6.224c27.305 52.914 6.551 117.949-46.358 145.254-52.928 27.3-117.948 6.538-145.263-46.377l-3.207-6.214-31.938 16.471 3.217 6.224 125.023 242.284 26.797-26.426z m0 0"  horiz-adv-x="1024" />

    
    <glyph glyph-name="wancheng" unicode="&#58974;" d="M512 896a512 512 0 1 0 0-1024A512 512 0 0 0 512 896z m256-358.4a51.2 51.2 0 0 1-36.352-14.9504L460.3904 251.49440000000004 292.352 419.6352a51.2 51.2 0 0 1-72.6016-72.192l204.3904-204.4928a51.2 51.2 0 0 1 72.6016 0l307.5072 307.4048a50.9952 50.9952 0 0 1-36.352 87.2448z"  horiz-adv-x="1024" />

    
    <glyph glyph-name="bokuanmingxi" unicode="&#58912;" d="M1015.824351 888.335329c-6.131737 5.10978-14.307385 7.664671-22.994012 7.664671H36.279441c-8.686627 0-17.373253-2.55489-23.50499-7.664671C6.642715 883.736527 3.576846 877.093812 3.576846 869.94012v-969.32535c0-7.153693 3.576846-13.796407 9.708583-18.395209 6.131737-5.10978 14.818363-7.664671 23.50499-7.664671h427.688623c24.526946 0 43.944112 17.884232 43.944112 40.367266s-19.928144 40.367265-43.944112 40.367265H95.552894V815.2654689999999h837.493014v-302.499002c0-23.50499 20.439122-42.411178 45.988024-42.411178s45.988024 18.906188 45.988024 42.411178V869.94012c0.510978 7.153693-3.065868 13.796407-9.197605 18.395209z m-408.271457-251.912175c16.351297 0 29.636727 12.774451 29.636727 28.61477 0 15.840319-13.285429 28.61477-29.636727 28.614771H213.077844c-16.351297 0-29.636727-12.774451-29.636726-28.614771 0-15.840319 13.285429-28.61477 29.636726-28.61477h394.47505z m-406.738523-273.373254c-16.351297 0-29.636727-12.774451-29.636726-28.61477 0-15.840319 13.285429-28.61477 29.636726-28.614771h219.209581c16.351297 0 29.636727 12.774451 29.636727 28.614771 0 15.840319-13.285429 28.61477-29.636727 28.61477H200.814371z m424.111777 136.431138c0 16.351297-13.285429 29.125749-29.636727 29.125748H200.814371c-16.351297 0-29.636727-12.774451-29.636726-28.61477 0-15.840319 13.285429-28.61477 29.636726-28.61477h394.47505c16.351297-0.510978 29.636727 12.263473 29.636727 28.103792z m227.896207-234.027944l-51.097804-88.399202c-13.796407-24.015968-21.972056-39.856287-25.037924-47.520958h-1.021956c-9.197605 19.417166-34.235529 64.383234-76.135729 135.92016h-48.031936l89.421158-144.095809h-73.069861v-31.680638h85.844312v-43.944112h-85.844312v-32.191617h85.844312v-63.872255h42.411177v63.872255H878.882236v32.191617h-82.778444v43.944112H878.882236v31.680638h-71.025949l90.443114 144.095809h-45.477046z m-78.17964 101.173653c-136.431138 0-247.313373-110.882236-247.313374-247.313374s110.882236-247.313373 247.313374-247.313373 247.313373 110.882236 247.313373 247.313373-110.882236 247.313373-247.313373 247.313374z m0-453.748503c-113.948104 0-206.43513 92.487026-206.43513 206.435129s92.487026 206.43513 206.43513 206.43513 206.43513-92.487026 206.435129-206.43513-92.487026-206.43513-206.435129-206.435129z"  horiz-adv-x="1027" />

    
    <glyph glyph-name="wujilu" unicode="&#58943;" d="M513.463 100.20600000000002c-32.183 0-57.052-24.869-57.052-55.589v-1.463c0-5.851 4.389-11.703 11.703-11.703s11.703 4.389 11.703 11.703v1.463c0 17.554 14.629 33.646 33.646 33.646s33.646-16.092 33.646-33.646v-1.463c0-5.851 4.388-11.703 11.702-11.703s11.703 4.389 11.703 11.703v1.463c0 29.257-26.331 55.589-57.051 55.589z m130.194 87.771c-23.406-4.388-55.588-32.183-51.2-57.051 2.926-10.24 11.703-16.092 30.72-13.166 35.109 5.851 49.737 1.463 58.514 4.389 8.778 2.925 11.703 17.554-2.925 23.405-16.092 5.852-33.646-1.463-36.572 2.926-2.925 2.926 4.389 8.777 17.555 11.703 14.628 2.926 32.182 4.388 27.794 14.628-4.389 16.092-27.794 17.555-43.886 13.166z m-261.851 0c-16.092 2.926-38.035 2.926-43.886-13.166-2.926-10.24 13.166-11.702 27.794-14.628 11.703-2.926 17.555-8.777 17.555-11.703-2.926-4.389-21.943 2.926-36.572-2.926-16.091-5.851-13.166-19.017-2.926-23.405 8.778-2.926 24.869 1.462 58.515-4.389 17.554-2.926 27.794 2.926 30.72 13.166 2.925 24.868-29.257 52.663-51.2 57.051z m626.103 231.132L810.423 600.5029999999999c-4.389 4.388-10.24 5.851-16.092 5.851H229.67c-5.852 0-11.703-2.925-16.092-5.851L14.63 419.109c-4.389-5.852-7.315-11.703-7.315-19.018v-444.708c0-38.034 30.72-68.754 70.217-68.754H946.47c38.034 0 70.217 32.182 70.217 70.217V401.554c0 5.852-4.389 13.166-8.777 17.555zM234.057 577.097H792.87L964.023 419.11H661.21c-5.851 0-11.702-5.852-11.702-13.166 0-73.143-62.903-134.583-136.046-134.583S377.417 332.79999999999995 377.417 405.943c0 5.851-5.851 13.166-11.703 13.166H61.44l172.617 157.988z m751.909-620.251c0-21.943-17.555-38.035-38.035-38.035H78.994c-21.943 0-39.497 17.555-39.497 38.035V392.777h315.977l1.463-8.777c5.852-35.109 21.943-67.291 48.274-92.16 29.258-27.794 68.755-43.886 109.715-43.886s78.994 16.092 109.714 43.886c26.331 26.331 42.423 57.051 48.274 92.16l1.463 8.777h311.589v-435.931zM734.354 675.109c19.017 0 35.109 16.091 35.109 35.108s-16.092 35.109-35.109 35.109-35.108-16.092-35.108-35.109c1.463-19.017 16.091-33.646 35.108-35.108z m0 54.125c10.24 0 19.017-8.777 19.017-19.017s-8.777-19.017-19.017-19.017-19.017 8.777-19.017 19.017 8.777 19.017 19.017 19.017zM188.71 792.137c27.794 0 52.662 23.406 52.662 52.663S217.966 896 188.71 896s-51.2-23.406-51.2-52.663 23.405-51.2 51.2-51.2z m0 87.772c19.017 0 36.571-16.092 36.571-36.572S209.189 808.23 188.709 808.23 153.6 824.3199999999999 153.6 843.337s16.091 36.572 35.109 36.572zM348.16 738.01h10.24v-10.24c0-4.388 2.926-7.314 7.314-7.314s7.315 2.926 7.315 7.314v10.24h8.777c4.388 0 7.314 2.926 7.314 7.315s-2.926 7.314-7.314 7.314h-8.777v10.24c0 4.389-2.926 7.314-7.315 7.314s-7.314-2.925-7.314-7.314v-8.777h-10.24c-4.389 0-7.314-2.926-7.314-7.314-1.463-5.852 1.463-8.778 7.314-8.778zM43.886 632.6859999999999h26.331v-26.332c0-4.388 2.926-7.314 7.314-7.314s7.315 2.926 7.315 7.314v26.332h26.331c4.389 0 7.314 2.925 7.314 7.314s-2.925 7.314-7.314 7.314H86.31v26.332c0 4.388-2.926 7.314-7.315 7.314s-7.314-2.926-7.314-7.314v-26.332H43.886c-4.389 0-7.315-2.925-7.315-7.314-1.462-2.926 2.926-7.314 7.315-7.314z m867.474-14.629h17.554v-17.554c0-4.389 2.926-7.314 7.315-7.314s7.314 2.925 7.314 7.314v17.554h17.554c4.389 0 7.314 2.926 7.314 7.314s-1.462 7.315-5.851 7.315h-17.554V650.24c0 4.389-2.926 7.314-7.315 7.314s-7.314-2.925-7.314-7.314v-17.554h-17.554c-4.389 0-7.314-2.926-7.314-7.315s1.462-7.314 5.851-7.314zM810.423 768.731h32.183v-32.182c0-4.389 2.925-7.315 7.314-7.315s7.314 2.926 7.314 7.315V768.73h32.183c4.389 0 7.314 2.926 7.314 7.315s-2.925 7.314-7.314 7.314h-32.183V817.006c0 4.388-2.925 7.314-7.314 7.314s-7.314-2.926-7.314-7.314v-32.183h-32.183c-4.389 0-7.314-2.926-7.314-7.314 0-5.852 2.925-8.778 7.314-8.778z"  horiz-adv-x="1024" />

    
    <glyph glyph-name="zuowu-lvdou" unicode="&#58939;" d="M944.5 394.4C933 425.5 915.4 453.2 892 477c-34.6 34.9-78.6 58-125 72.8-29.5 9.4-60 15.6-89.7 19.4l-2.3 6.2v0.1c-17.4 45.3-45.5 80.2-83.6 103.9-37.4 23.1-83.8 34.8-138 34.8-20.8 0-43.1-1.9-68.3-5.7-23.3-3.6-47.6-9.1-72.4-16.2-83.9-24.6-148-62.1-190.7-111.4-26.6-30.8-44.2-65.2-52.2-102.3-8.4-39.1-3.1-67.4-0.4-77.8 8.4-31.7 22.6-59.3 42.2-82.1 19.5-22.8 44.7-40.8 74.7-53.4l7.3-2.9c12-52.2 42.1-104.6 104.6-144.3 63.5-40.7 160.9-68 307.7-68 122.5 0.2 203.1 26.1 256.3 61.5 83.8 56 98.6 136 99.2 179 0.2 38.1-5.3 72.7-16.9 103.8z m-756.8-59.7c-0.5-5.1-0.8-9.8-0.7-14.1 0.1-7.8 0.4-15.8 1.2-23.8-21.6 10.5-39.7 24.3-54.2 41.1-16.7 19.4-28.9 43.1-36.1 70.4-7.4 28.5-6 92.8 46.3 153.3 38.9 45 98.4 79.4 176.7 102.4 23.5 6.8 46.7 12 68.7 15.4 23.7 3.6 44.5 5.4 63.8 5.4 48.7 0 89.9-10.2 122.5-30.4 30.1-18.7 53.1-46 68.3-81.3-8 0.6-16.2 1.2-24.4 1.6-11.3 0.5-22.8 0.8-34.3 0.8-5.4 0-9.1 0-12-0.3-3.6 0-7.4 0-11.5-0.3-107.8-3-195.9-26.5-261.7-69.9-39.3-26-69.4-58.2-89.4-95.6-13.4-24.8-21.6-51.5-23.2-74.7zM916 217.79999999999995c-14.4-32.7-38-60.2-70.2-81.7-56.1-37.3-136.8-56.3-240-56.5-128 0-226.1 21.3-291.8 63.4-34.9 22.2-60.8 50.4-77 83.9-5.2 10.8-9.4 22.2-12.7 34.2l-4.7 30.2c-1.1 6.6-1.6 11.8-1.8 16.4l-0.1 1.3c-0.5 6-0.9 11.7-0.9 16.8 0 1.9 0 4 0.2 6.1 1.4 12.7 5.8 34 19.3 59.7 8.2 15.7 18.7 30.6 31.1 44.4 14.3 15.9 31.2 30.3 50.3 43 61.7 40.8 145.3 62.9 248.7 65.9h1.2c2.8 0.2 6.2 0.2 9.6 0.2h1.4c4.6 0.2 8.4 0.2 10.4 0.2 63.6 0 120.5-7.9 169.3-23.5 46.6-14.9 84.6-36.9 113-65.4 20.4-20.8 35.8-45.1 45.8-72.2 10.2-27.4 15.2-58.8 15-93.4-0.5-17.4-3.4-44.1-16.1-73zM753.8 430c-107.2 91.4-226.7 28.9-227.2 28.6-9.3-4.8-12.8-16.1-8.3-25.4 4.8-9 16.1-12.8 25.3-8.3 0.2 0.2 97.9 51.2 185.7-23.6 8-6.8 19.8-5.8 26.6 2.3 6.7 7.8 6 19.6-2.1 26.4zM346.9 578c0 0.3 59.7 43.7 131 13.3 6.3-2.8 13.8 0.3 16.6 6.5 2.5 6.3-0.3 13.8-6.8 16.6-84.3 35.9-155.1-15.8-155.4-15.8-5.8-4-7-12.1-3-17.6 4.1-5.5 11.9-7 17.6-3z"  horiz-adv-x="1024" />

    
    <glyph glyph-name="xialakuang" unicode="&#58905;" d="M489.244444 145.066667L108.088889 529.066667c-11.377778 11.377778-11.377778 28.444444 0 39.822222 11.377778 11.377778 28.444444 11.377778 39.822222 0l341.333333-344.177778 344.177778 344.177778c11.377778 11.377778 28.444444 11.377778 39.822222 0s11.377778-28.444444 0-39.822222L489.244444 145.066667z"  horiz-adv-x="1024" />

    
    <glyph glyph-name="xiaofeizhe" unicode="&#58959;" d="M1112.064 259.702154a1564.829538 1564.829538 0 0 1-264.034462 79.320615c69.947077 41.905231 112.324923 114.451692 112.403693 192.433231V667.411692C960.433231 793.442462 851.495385 896 717.508923 896 647.876923 896 581.553231 867.643077 535.630769 818.491077a220.002462 220.002462 0 0 1-61.046154-151.079385v-135.955692c0-76.8 40.566154-144.699077 102.4-186.210462-149.425231-24.260923-291.288615-82.392615-297.90523-85.070769-40.251077-15.596308-70.577231-58.131692-70.577231-99.170461v-164.076308h0.787692c5.907692-42.299077 44.347077-73.964308 89.796923-73.964308H1090.953846c39.620923 0 74.988308 24.418462 88.221539 60.652308l2.284307 6.459077v170.929231c0 41.275077-30.404923 83.968-69.474461 98.697846M317.833846 374.626462c49.073231 13.942154 72.310154 21.740308 72.310154 21.740307s31.822769 12.760615 23.394462 38.281846c-19.692308 34.107077-33.634462 60.494769-33.634462 160.059077V724.046769s8.428308 63.015385 35.052308 68.923077c2.126769 2.126769 2.520615 5.198769 1.575384 8.664616a45.134769 45.134769 0 0 1-41.275077 24.891076C272.462769 826.368 189.046154 750.513231 189.046154 657.014154V549.415385c0-41.747692 17.329231-79.556923 45.056-109.174154a1019.588923 1019.588923 0 0 1-179.121231-70.892308C22.921846 355.643077 0 322.56 0 289.713231v-117.366154c0-22.528 20.086154-40.802462 44.898462-40.802462 22.685538 0.157538 41.668923 15.753846 43.95323 36.391385 0.157538 1.496615 0.945231 2.914462 0.945231 4.489846V191.015385c3.623385 38.754462 19.534769 108.937846 85.622154 141.784615 10.082462 4.096 20.873846 8.113231 31.901538 12.130462 37.021538 9.452308 73.806769 19.298462 110.513231 29.696"  horiz-adv-x="1181" />

    
    <glyph glyph-name="wode" unicode="&#58882;" d="M361.37472 213.85728h308.1728c157.34784 0 228.57728-119.83872 243.50208-275.4304l36.41344 40.1152H81.46432l36.41344-40.1152c14.9248 155.62752 86.05184 275.4304 243.49696 275.4304z m-279.9104-308.55168h868.00384c21.58592 0 38.4768 18.6112 36.41344 40.12032-18.5088 193.07008-121.20576 341.66272-316.32896 341.66272h-308.1728c-195.22048 0-297.81504-148.57728-316.32384-341.66272-2.06848-21.50912 14.81728-40.12032 36.40832-40.12032z m688.0768 675.13856c0 144.91648-117.36576 262.37952-262.1184 262.37952-144.77824 0-262.144-117.46304-262.144-262.37952 0-144.91136 117.36576-262.39488 262.144-262.39488 144.75264 0 262.1184 117.48352 262.1184 262.39488z m-451.11296 0c0 104.46848 84.61312 189.13792 188.98944 189.13792 104.35072 0 188.95872-84.67456 188.95872-189.13792s-84.608-189.1584-188.95872-189.1584c-104.3712 0-188.98944 84.68992-188.98944 189.1584z"  horiz-adv-x="1024" />

    
    <glyph glyph-name="guanbi" unicode="&#58880;" d="M891.264-5.248000000000047a30.784 30.784 0 0 0-21.76 9.024L128.256 745.024a30.72 30.72 0 1 0 43.52 43.52l741.312-741.312a30.848 30.848 0 0 0-21.824-52.48M150.016-5.248000000000047a30.72 30.72 0 0 0-21.76 52.544l741.312 741.248a30.784 30.784 0 0 0 43.456-43.52L171.776 3.7759999999999536a30.72 30.72 0 0 0-21.76-9.024"  horiz-adv-x="1024" />

    
    <glyph glyph-name="zhuanzeng1" unicode="&#59072;" d="M481.792-7.168c-204.288 0-370.176 166.4-370.176 370.176s166.4 370.176 370.176 370.176c63.488 0 125.952-16.384 181.248-47.104 7.68-4.096 10.24-14.336 6.144-22.016s-13.824-10.752-22.016-6.144c-50.176 28.16-107.52 43.008-165.376 43.008C295.424 701.44 143.36 549.376 143.36 363.008s151.552-338.432 338.432-338.432c165.376 0 309.248 123.392 334.336 286.72 1.536 8.704 9.728 14.848 18.432 13.312 8.704-1.536 14.848-9.728 13.312-18.432-27.648-178.688-184.832-313.344-366.08-313.344zM263.68 179.2c-2.56 0-4.608 0.512-7.168 1.536-6.656 3.072-10.24 10.752-8.704 17.92 56.32 245.76 202.752 391.168 435.2 432.128V759.296c0 6.656 4.096 12.288 9.728 14.848 6.144 2.56 12.8 1.024 17.408-3.584l262.144-262.144c3.072-3.072 4.608-7.168 4.608-11.264 0-4.096-1.536-8.192-4.608-11.264l-264.192-264.192c-4.608-4.608-11.264-6.144-17.408-3.584-6.144 2.56-9.728 8.192-9.728 14.848v132.096c-179.712-2.56-308.736-59.904-405.504-179.712-2.56-4.096-7.168-6.144-11.776-6.144z m452.096 541.696v-103.424c0-7.68-5.632-14.848-13.312-15.872-208.384-32.768-341.504-146.432-405.504-346.624 99.84 95.744 230.4 142.336 397.824 142.336h3.584c8.704 0 15.872-7.168 15.872-15.872V271.36l225.28 225.792-223.744 223.744z"  horiz-adv-x="1024" />

    
    <glyph glyph-name="douzi1" unicode="&#58908;" d="M319.502 553.7529999999999c15.176-34.072-42.071-96.269-103.362-107.594-53.578-9.9-181.56 25.357-189.529-107.591 0 0-50.793-322.449 354.166-225.979 0 0 110.074 26.732 239.584 138.313 0 0 298.868 253.042 125.525 466.232 0 0-155.13 213.61-341.582 57.781-26.581-22.215-64.879-61.766-84.803-109.583-31.313-75.157-11.349-86.098 0.001-111.579zM244.73 90.57600000000002h-0.003c-78.56 0-137.788 22.689-176.038 67.436-32.581 38.114-43.358 85.355-46.662 118.275-3.448 34.356 0.195 60.016 0.602 62.706 2.916 47.931 21.13 79.022 55.681 95.046 29.283 13.582 64.451 13.739 95.479 13.878 15.736 0.07 30.6 0.137 41.625 2.174 43.159 7.975 81.595 41.056 95.847 68.132 4.865 9.242 9.61 22.626 4.588 33.901-1.759 3.948-3.788 7.635-5.751 11.201-10.955 19.904-21.302 38.705 5.712 103.544 22.675 54.419 67.647 95.834 85.931 111.114C447.66 816.36 495.768 835.82 544.726 835.82c62.055 0 114.35-31.666 147.293-58.23 34.918-28.158 55.489-55.898 57.038-58.016 40.152-49.419 58.434-105.1 54.337-165.5-3.266-48.14-20.7-99.292-51.821-152.036-52.782-89.458-127.874-153.553-128.626-154.19-67.216-57.91-129.134-92.634-169.236-111.563-43.574-20.567-70.85-27.307-71.989-27.583-50.493-12.028-96.58-18.126-136.992-18.126zM544.726 827.821c-47.033 0-93.414-18.833-137.855-55.976-17.832-14.902-61.68-55.263-83.676-108.052-25.533-61.281-16.522-77.653-6.088-96.609 2.042-3.711 4.154-7.548 6.05-11.804 5.009-11.244 3.343-25.381-4.816-40.882-8.321-15.809-22.746-31.754-40.616-44.897-19.162-14.093-40.205-23.559-60.857-27.375-11.728-2.167-26.939-2.235-43.043-2.308-30.209-0.135-64.449-0.289-92.148-13.136-31.679-14.693-48.385-43.626-51.072-88.453a3.778 3.778 0 0 0-0.041-0.382c-0.041-0.261-4.053-26.512-0.55-61.104 3.212-31.725 13.592-77.199 44.796-113.678 36.662-42.857 93.831-64.589 169.919-64.589 39.79 0 85.251 6.023 135.123 17.904 0.255 0.062 27.801 6.886 70.709 27.164 39.593 18.712 100.739 53.035 167.191 110.287 0.77 0.651 74.95 63.996 127.027 152.333 69.366 117.664 68.695 221.406-1.994 308.346a4.382 4.382 0 0 0-0.133 0.172c-0.206 0.284-21.034 28.702-55.821 56.716-31.908 25.695-82.461 56.323-142.105 56.323zM410.693 579.643c-5.946-14.603-8.226-40.888-20.018-54.335-4.547-0.195-9.238-2.82-12.292-6.813-6.403 3.368-15.01 2.828-19.981-5.018-10.702-16.895-32.522-36.559-46.375-55.033-9.09-12.124-19.603-30.08-18.591-45.847-15.079-16.695-37.435-27.195-59.609-29.197-19.034-1.719-19.202-31.619 0-29.888 28.973 2.615 56.583 14.469 77.126 34.532 28.765-15.333 68.499-0.577 86.624 23.761 18.226 24.475 18.613 59.616 10.377 88.986 17.226 16.983 21.628 46.527 31.559 70.909 7.271 17.856-21.653 25.546-28.82 7.943z m-37.227-150.201c-6.442-10.875-17.75-15.743-29.939-16.349-4.898-0.24-9.812-0.128-14.633 0.71 0.206 3.64-1.246 6.946-3.643 9.519 1.143 2.567 2.646 5.004 4.046 7.403 5.585 9.547 12.676 18.153 19.811 26.565 8.525 10.049 18.445 19.527 26.905 29.899 1.67 0.12 3.336 0.304 4.993 0.55 4.419-19.549 2.455-41.425-7.54-58.297zM232.253 350.43899999999996c-10.385 0-15.39 7.913-15.744 15.755-0.406 9.006 5.431 19.144 17.047 20.193 21.505 1.941 42.65 12.126 56.825 27.319-0.47 16.576 10.131 34.382 19.244 46.537 6.251 8.336 14.118 16.93 21.726 25.24 9.625 10.514 18.717 20.445 24.516 29.599 3.421 5.4 8.669 8.374 14.775 8.374 2.331 0 4.69-0.448 6.935-1.309 3.187 3.292 7.396 5.492 11.599 6.039 6.784 8.409 10.224 22.04 13.273 34.117 1.725 6.834 3.355 13.29 5.465 18.471 3.014 7.402 9.691 11.822 17.862 11.822 6.446 0 12.395-2.892 15.525-7.546 2.766-4.113 3.117-9.255 0.989-14.48-2.924-7.18-5.42-14.996-7.833-22.554-5.604-17.55-11.393-35.678-23.155-48.092 9.229-34.44 5.037-67.945-11.319-89.91-13.907-18.674-39.154-31.222-62.821-31.222-9.338-0.01-17.936 1.888-25.669 5.615-20.398-19.2-47.793-31.21-77.397-33.883-0.621-0.056-1.241-0.085-1.843-0.085z m138.39 167.017c-2.814 0-6.782-0.969-9.707-5.584-6.083-9.603-15.349-19.724-25.158-30.439-7.51-8.204-15.276-16.687-21.351-24.788-7.16-9.55-19.019-27.946-17.998-43.854l0.082-1.264-0.849-0.939c-15.158-16.782-38.173-28.063-61.565-30.175-7.991-0.721-11.881-7.562-11.594-13.946 0.219-4.847 2.895-10.025 9.75-10.025 0.422 0 0.861 0.021 1.304 0.061 28.992 2.616 55.734 14.581 75.299 33.69l1.57 1.534 1.937-1.032c7.345-3.916 15.688-5.9 24.798-5.901 21.865 0 45.177 11.576 58.009 28.806 15.52 20.84 19.219 53.133 9.895 86.384l-0.478 1.704 1.26 1.242c11.55 11.388 17.061 28.644 22.894 46.913 2.449 7.667 4.98 15.596 7.993 22.992 1.39 3.413 1.251 6.396-0.411 8.869-2 2.974-6.14 4.895-10.547 4.895-5.644 0-10.244-3.022-12.305-8.084-1.952-4.793-3.531-11.051-5.204-17.677-3.326-13.175-7.096-28.107-15.336-37.505l-0.846-0.964-1.281-0.055c-3.651-0.157-7.498-2.318-10.038-5.639l-1.539-2.011-2.241 1.179c-2.01 1.053-4.204 1.613-6.343 1.613z m-31.449-107.473c-3.927 0-7.464 0.283-10.814 0.865l-2.632 0.458 0.151 2.667c0.188 3.314-1.442 5.801-2.843 7.304l-1.353 1.452 0.807 1.813c1.033 2.32 2.306 4.483 3.538 6.574l0.658 1.121c5.709 9.76 12.772 18.338 20.114 26.994 3.939 4.644 8.228 9.225 12.374 13.655 4.897 5.232 9.961 10.643 14.495 16.2l0.818 1.003 1.291 0.093a63.887 63.887 0 0 1 4.767 0.525l2.753 0.409 0.614-2.715c4.833-21.383 1.885-43.995-7.885-60.488-6.379-10.769-17.875-17.096-32.371-17.816a92.14 92.14 0 0 0-4.482-0.114z m-7.407 6.424c3.466-0.428 7.232-0.531 11.593-0.317 8.784 0.436 20.688 3.372 27.505 14.881 8.608 14.531 11.447 34.328 7.753 53.443-0.372-0.04-0.744-0.077-1.115-0.11-4.442-5.36-9.271-10.52-13.949-15.518-4.097-4.377-8.334-8.904-12.179-13.436-7.163-8.446-14.046-16.8-19.509-26.139l-0.668-1.138c-0.833-1.414-1.686-2.864-2.433-4.321 1.637-2.232 2.662-4.743 3.002-7.345zM632.445 338.01800000000003c-33.14-14.505-98.1 6.485-120.622 8.887-245.329 26.142-245.929-135.129-176.944-242.617 38.455-59.92 98.533-80.34 149.896-97.057 27.05-8.804 52.534-15.129 80.884-17.91 157.616-15.471 381.354 18.092 426.976 189.767 0 0 63.172 290.798-165.168 240.96-60.785-13.269-48.892-18.075-195.022-82.03zM635.056-18.049999999999955c-23.396 0-46.876 1.141-69.788 3.39-25.896 2.54-51.103 8.118-81.731 18.087-23.608 7.684-52.989 17.246-80.503 32.64-30.577 17.108-53.972 38.717-71.521 66.061-19.229 29.962-32.169 62.225-37.421 93.301-5.792 34.274-1.689 65.5 11.864 90.304 11.6 21.228 29.909 37.787 54.419 49.219 26.711 12.46 60.843 18.776 101.446 18.776 15.743 0 32.709-0.957 50.427-2.845 5.831-0.622 14.283-2.419 24.069-4.5 19.76-4.203 44.353-9.434 66.049-9.434 11.72 0 21.3 1.593 28.477 4.733 57.628 25.222 91.1 41.451 113.248 52.19 34.778 16.863 45.275 21.953 82.523 30.083 17.745 3.873 34.449 5.837 49.646 5.837 40.286 0 71.709-13.64 93.397-40.542 29.71-36.853 35.409-92.375 34.958-132.464-0.485-43.126-7.997-78.198-8.072-78.548l-0.043-0.179c-18.263-68.722-65.521-120.722-140.463-154.555-76.075-34.345-162.161-41.554-220.981-41.554zM461.82 345.727c-74.556 0-126.025-22.072-148.845-63.832-29.611-54.188-6.362-126.161 25.27-175.447 38.387-59.813 99.035-79.553 147.767-95.413 30.056-9.782 54.741-15.251 80.037-17.733 22.653-2.224 45.871-3.351 69.007-3.351 71.109 0 306.734 13.709 353.687 190.067 0.404 1.907 7.427 35.68 7.875 77.016 0.421 38.73-4.998 92.239-33.198 127.208-20.094 24.917-49.418 37.551-87.159 37.551-14.625 0-30.754-1.902-47.941-5.653-36.318-7.927-45.729-12.49-80.738-29.465-22.204-10.767-55.76-27.037-113.531-52.32-8.309-3.637-18.673-5.405-31.684-5.405-22.537 0-48.648 5.554-67.714 9.608-9.568 2.035-17.832 3.792-23.252 4.37-17.439 1.857-34.12 2.799-49.581 2.799zM773.974 276.34299999999996a7.502 7.502 0 0 0-3.899 13.912c13.899 8.439 28.327 17.906 42.88 28.138a7.501 7.501 0 0 0 8.627-12.271c-14.826-10.423-29.536-20.075-43.722-28.688a7.454 7.454 0 0 0-3.886-1.091zM599.303 215.235c-18.346 0-35.724 2.639-52.254 7.9a7.5 7.5 0 0 0 4.551 14.293c49.897-15.884 109.134-5.487 181.096 31.785a7.501 7.501 0 0 0 6.898-13.32c-52.463-27.171-98.832-40.658-140.291-40.658zM511.817 241.827a7.47 7.47 0 0 0-4.471 1.482c-11.331 8.43-20.06 17.472-25.944 26.876a7.5 7.5 0 0 0 12.716 7.957c4.891-7.816 12.354-15.486 22.181-22.798a7.5 7.5 0 0 0-4.482-13.517z"  horiz-adv-x="1024" />

    
    <glyph glyph-name="ludan" unicode="&#58893;" d="M836-7.5c0-66.4-54.1-120.5-120.5-120.5H217.1c-66.4 0-120.5 54.1-120.5 120.5v783C96.6 841.9 150.7 896 217.1 896h380.3c20.2 0 39.4-8.6 52.8-23.6l164.2-183c13.9-15.4 21.4-35.3 21.4-55.9V568L781 473.2V633.5c0 7.1-2.6 14-7.4 19.4l-164 183c-3.1 3.4-7.5 5.4-12.2 5.4H217.1c-36.2 0-65.8-29.4-65.8-65.8v-783.1c0-36.2 29.4-65.8 65.8-65.8h498.4c36.2 0 65.8 29.4 65.8 65.8V262.6l54.8 94.9v-365.1h-0.1zM232.2 321.6c-13.2 0-24 10.8-24 24s10.8 24 24 24H633c13.2 0 24-10.8 24-24s-10.8-24-24-24H232.2zM538.3 181.3c0-11.2-9.1-20.3-20.3-20.3H232.2c-11.2 0-20.3 9.1-20.3 20.3s9.1 20.3 20.3 20.3h285.9c11.1 0 20.2-9.1 20.2-20.3zM232.2 484c-14.3 0-26 11.6-26 26 0 14.5 11.6 26 26 26h468.3c14.3 0 26-11.6 26-26 0-14.5-11.6-26-26-26H232.2zM619.1 624.9c-22 0-24 16.5-24 36.4L597.3 809c1.7 3.9 6.8 4.8 9.5 1.5l152.3-173.3c3.1-3.4 0.9-8.8-3.5-9.4l-136.5-2.9zM681 110.6l-66.2-29.3-7.1 72.1 234.2 401 73.4-42.9zM924.7 527.7l-73.5 42.8 24.1 41.2 73.5-42.9z"  horiz-adv-x="1024" />

    
    <glyph glyph-name="gaoguanxinxi" unicode="&#58894;" d="M554.192059 354.414365c83.018956 49.209849 139.395909 144.109986 139.395909 252.875057 0 159.190768-120.710245 288.710578-269.065033 288.710578-148.37612 0-269.086364-129.51981-269.086365-288.710578 0-108.573095 56.184977-203.302587 138.947965-252.597758-93.748281-31.441403-156.545765-93.598967-195.836853-148.418781C36.966046 120.35295599999995 0.213307 7.151106000000027 0.213307-96.53726600000005a31.462734 31.462734 0 1 1 62.925467 0c0 70.284548 22.738491 177.151189 86.581178 266.206724 46.671499 65.122526 132.228805 142.766154 274.781652 142.766154 247.84102 0 363.30392-244.044161 363.30392-408.972878a31.462734 31.462734 0 1 1 62.925468 0c0 159.297421-95.028121 382.48019-296.538933 450.951631zM218.362038 607.2894220000001c0 124.528434 92.468441 225.827772 206.139566 225.827772s206.139566-101.299338 206.139566-225.827772-92.468441-225.827772-206.139566-225.827771-206.139566 101.299338-206.139566 225.827771z m770.890305-381.413656c-45.860934 78.966129-120.752906 124.72041-174.31421 148.952047 53.774612 40.592259 123.845853 115.953506 113.393826 228.472774-15.806024 170.1334-169.301504 216.847561-175.828689 218.745991a31.484064 31.484064 0 0 1-38.928467-21.245345 31.505395 31.505395 0 0 1 21.160022-39.077782c4.842061-1.450485 119.153106-37.371329 130.948965-164.224805 12.179811-131.204933-129.221181-198.673832-135.193768-201.46815a31.441403 31.441403 0 0 1 5.631296-59.085947c1.343832-0.31996 136.025663-34.704995 198.695163-142.638171 52.665417-90.634004 51.278923-190.61084 51.257593-191.549389-0.426613-17.363163 13.331667-31.782694 30.69483-32.187977l0.767904-0.02133c17.021872 0 31.03612 13.587635 31.441403 30.694829 0.106653 4.778069 2.090405 118.171895-59.725868 224.633255z"  horiz-adv-x="1049" />

    
    <glyph glyph-name="jia1" unicode="&#58907;" d="M947.392 460.672H588.704V819.36a76.672 76.672 0 0 1-153.344 0v-358.688H76.672a76.672 76.672 0 0 1 0-153.344h358.688v-358.688a76.672 76.672 0 0 1 153.344 0V307.328h358.688a76.64 76.64 0 0 1 0 153.344z"  horiz-adv-x="1024" />

    
    <glyph glyph-name="shouye" unicode="&#58920;" d="M998.870372 445.640348L552.428633 858.86887l-0.26713 0.200347-1.558261 1.246609-0.601044 0.467478-1.892174 1.380174-0.289391 0.222609-2.203826 1.446956-0.022261 0.022261a63.532522 63.532522 0 0 1-74.50713-5.097739L24.756981 445.640348a57.878261 57.878261 0 0 1-5.832348-83.812174c22.394435-24.665043 61.417739-27.225043 87.062261-5.632l42.295652 35.617391v-348.560695c0-82.075826 24.887652-148.880696 110.146783-148.880696h92.16c34.05913 0 61.68487 26.601739 61.684869 59.392V234.162087c0 16.562087 14.024348 30.052174 31.209739 30.052174h136.592696c17.229913 0 31.276522-13.490087 31.276522-30.052174v-273.430261c0-4.051478 0.422957-8.102957 1.29113-12.109913l1.491478-6.967652c5.965913-27.514435 31.187478-47.282087 60.416-47.282087h90.646261c85.25913 0 110.146783 66.80487 110.146783 148.880696V391.791304l42.295652-35.59513a62.998261 62.998261 0 0 1 40.603826-14.647652c17.14087 0 34.259478 6.856348 46.458435 20.279652a57.878261 57.878261 0 0 1-5.832348 83.812174z"  horiz-adv-x="1024" />

    
    <glyph glyph-name="shidagudong" unicode="&#58923;" d="M1204.585427 225.875766c61.816273-106.461359 59.81119-219.855185 59.725867-224.633255a31.462734 31.462734 0 0 0-31.441403-30.673499h-0.767904a31.462734 31.462734 0 0 0-30.71616 32.187977c0.021331 0.938549 1.407824 100.915386-51.236262 191.549389-62.6695 107.933175-197.351331 142.31821-198.695163 142.638171a31.441403 31.441403 0 0 0-5.631297 59.085947c5.972587 2.794317 147.352248 70.284548 135.172437 201.46815-11.774528 126.853477-126.085573 162.77432-130.948964 164.224805a31.462734 31.462734 0 0 0 17.768445 60.323127c6.548515-1.898429 160.043995-48.61259 175.850019-218.745991 10.452027-112.519268-59.619214-187.880515-113.393826-228.451443 53.561305-24.231638 128.453277-70.007249 174.314211-148.973378z m-435.060284 128.538599c201.510811-68.471441 296.538933-291.632879 296.538932-450.951631a31.462734 31.462734 0 0 0-62.925467 0c0 164.928717-115.4629 408.972878-363.303921 408.972878-142.552848 0-228.110153-77.643628-274.802983-142.766154-63.821356-89.055535-86.559847-195.922176-86.559846-266.206724a31.462734 31.462734 0 0 0-62.925468 0c0 103.688372 36.752739 216.890222 98.334375 302.810149 39.291089 54.819814 102.088572 116.977378 195.836854 148.418781-82.784319 49.295171-138.947965 144.024664-138.947965 252.597758 0 159.190768 120.710245 288.710578 269.065033 288.710578 148.37612 0 269.086364-129.51981 269.086365-288.710578 0-108.765071-56.376953-203.643878-139.395909-252.875057z m-129.690456 478.702829c-113.671124 0-206.139566-101.299338-206.139566-225.827772s92.468441-225.827772 206.139566-225.827771 206.139566 101.299338 206.139566 225.827771-92.468441 225.827772-206.139566 225.827772zM334.059576 396.030496a31.441403 31.441403 0 0 0-5.631296-59.085947c-1.343832-0.31996-136.025663-34.704995-198.695163-142.638171-52.644086-90.634004-51.257593-190.61084-51.257593-191.549389 0.426613-17.363163-13.331667-31.782694-30.69483-32.187977h-0.767904A31.462734 31.462734 0 0 0 15.571387 1.242511c-0.106653 4.778069-2.090405 118.171895 59.725868 224.633255 45.860934 78.966129 120.752906 124.741741 174.31421 148.973378-53.774612 40.570929-123.845853 115.932175-113.393826 228.451443 15.806024 170.1334 169.301504 216.847561 175.850019 218.745991a31.462734 31.462734 0 0 0 38.907137-21.245345 31.526726 31.526726 0 0 0-21.138691-39.077782c-4.863392-1.450485-119.174437-37.371329-130.970296-164.224805-12.15848-131.183602 129.221181-198.673832 135.193768-201.46815z"  horiz-adv-x="1279" />

    
    <glyph glyph-name="wode1" unicode="&#58925;" d="M21.944686-127.860373c-2.396927 11.961366-2.396927 43.05161 0 76.538781 7.167511 59.806831 31.113515 102.858441 66.997613 129.178102 26.31966 19.128878 59.806831 28.693316 88.523419 35.884099 14.358294 2.396927 28.716588 7.167511 40.677954 9.564438 71.768198 16.73195 122.685453 33.487171 177.69843 105.255369 4.793855 4.770584 33.510442 47.845465-43.05161 141.116197-33.510442 40.677954-55.036248 95.69093-64.600687 165.0622-9.58771 71.768198-2.396927 138.74254 4.770584 181.794151 9.58771 50.242393 38.281026 95.69093 81.355908 129.178101S470.030498 895.930187 522.669818 895.930187c52.616049 0 105.255369-16.73195 148.33025-50.219122s71.791469-78.935709 81.355908-131.575029c7.167511-43.05161 14.358294-110.025953 4.793855-181.79415-9.58771-66.974343-31.113515-121.987319-64.600687-165.038929-76.585324-93.294003-45.471809-136.368884-43.074881-141.139468 55.036248-74.165125 129.201373-90.897075 200.96957-105.255369 14.358294-2.396927 28.716588-7.167511 43.074882-9.564439 26.31966-7.167511 59.806831-16.755221 86.126491-35.884099 78.95898-55.012976 71.791469-174.626639 69.394541-203.319955H21.944686z"  horiz-adv-x="1070" />

    
    </font>
</defs>
</svg>
